<svg width="240" height="48" viewBox="0 0 240 48" fill="none" xmlns="http://www.w3.org/2000/svg">
<g clip-path="url(#clip0_324_14638)">
<path fill-rule="evenodd" clip-rule="evenodd" d="M5.98752 1.5C2.68071 1.5 0 4.1807 0 7.48752V39.9199C0 43.2267 2.68071 45.9074 5.98752 45.9074H41.7241C45.031 45.9074 47.7117 43.2267 47.7117 39.9199V7.48752C47.7117 4.1807 45.031 1.5 41.7241 1.5H5.98752ZM34.4675 7.35807C34.322 7.10848 34.0552 6.95498 33.7667 6.95485C33.4782 6.95472 33.2113 7.108 33.0656 7.35746L24.7634 21.5751C24.6166 21.8266 24.6152 22.1376 24.76 22.3903C24.9047 22.643 25.1733 22.7988 25.4641 22.7988H42.0518C42.3426 22.7988 42.6111 22.6431 42.7559 22.3906C42.9006 22.138 42.8995 21.8272 42.7529 21.5757L34.4675 7.35807ZM10.0207 7.4367C9.40546 6.82608 8.4132 6.82837 7.80076 7.44184L6.76298 8.48134C6.46672 8.77809 6.30086 9.18094 6.30215 9.60061C6.30344 10.0203 6.47179 10.4221 6.76987 10.717L11.0933 14.9944L6.76987 19.2719C6.47021 19.5683 6.30173 19.9728 6.30214 20.3947C6.30256 20.8166 6.47183 21.2207 6.77206 21.5166L7.80984 22.5393C8.42301 23.1436 9.40701 23.1426 10.019 22.5371L14.37 18.2324L18.721 22.5371C19.333 23.1426 20.317 23.1436 20.9302 22.5393L21.968 21.5166C22.2682 21.2207 22.4375 20.8166 22.4379 20.3947C22.4383 19.9728 22.2698 19.5683 21.9702 19.2719L17.6468 14.9944L21.9702 10.717C22.2683 10.4221 22.4366 10.0203 22.4379 9.60061C22.4392 9.18094 22.2733 8.77809 21.9771 8.48134L20.9393 7.44184C20.3268 6.82837 19.3346 6.82608 18.7193 7.4367L14.37 11.7531L10.0207 7.4367ZM25.7983 25.092C25.4147 25.092 25.1037 25.4035 25.1037 25.7878V39.6869C25.1037 40.0712 25.4147 40.3827 25.7983 40.3827H41.7165C42.1001 40.3827 42.4111 40.0712 42.4111 39.6869V25.7878C42.4111 25.4035 42.1001 25.092 41.7165 25.092H25.7983ZM13.8644 24.1531C9.26538 24.1531 5.53711 27.8876 5.53711 32.4942C5.53711 37.1009 9.26538 40.8354 13.8644 40.8354H14.0486C18.6476 40.8354 22.3759 37.1009 22.3759 32.4942C22.3759 27.8876 18.6476 24.1531 14.0486 24.1531H13.8644Z" fill="#1C6EE9"/>
<path d="M89.1894 36.7074V40.6087H56.609V36.7074H70.9332V26.6921H74.7904V36.7074H89.1894ZM65.7091 25.7355C63.2456 27.4867 60.3038 28.4363 57.2831 28.4552V24.5164C59.7028 24.4773 62.0435 23.6477 63.949 22.1534C66.2018 20.4145 68.0593 18.215 69.3978 15.7014C70.9417 12.9063 71.9992 9.86816 72.5247 6.71742L76.4194 7.46769C75.9755 10.0479 75.2275 12.5662 74.1912 14.9699L88.4779 25.2291L86.4182 28.5488L72.5247 18.2896C70.8244 21.2415 68.4978 23.7833 65.7091 25.7355Z" fill="#010A1A"/>
<path fill-rule="evenodd" clip-rule="evenodd" d="M72.1692 6.20536C72.307 6.10941 72.4776 6.07321 72.6423 6.10495L76.537 6.85521C76.8701 6.91938 77.0906 7.23879 77.033 7.57362C76.6092 10.037 75.9134 12.4451 74.9586 14.7536L88.8407 24.7222C89.1073 24.9136 89.1799 25.2793 89.0068 25.5583L86.9471 28.8781C86.8554 29.0258 86.7063 29.1285 86.5357 29.1613C86.3651 29.1942 86.1886 29.1541 86.0488 29.0509L72.7077 19.1996C70.9992 21.9757 68.74 24.3742 66.0676 26.2454C63.5003 28.0699 60.4348 29.0592 57.287 29.0789C57.1211 29.0799 56.9618 29.0147 56.8442 28.8976C56.7265 28.7805 56.6604 28.6213 56.6604 28.4552V24.5164C56.6604 24.1758 56.9331 23.8982 57.273 23.8927C59.5571 23.8559 61.7665 23.0728 63.5651 21.6623L63.5689 21.6593C65.7517 19.9745 67.5515 17.8434 68.8484 15.4079L68.8529 15.3994C70.3627 12.6663 71.3967 9.69552 71.9106 6.61464C71.9382 6.44888 72.0315 6.30131 72.1692 6.20536ZM73.0268 7.44927C72.4588 10.4435 71.4189 13.3297 69.9449 15.9991C68.5654 18.5884 66.6516 20.8543 64.3308 22.646C62.4801 24.0967 60.2409 24.9538 57.9057 25.114V27.8136C60.5774 27.6778 63.1601 26.7827 65.3487 25.2269L65.3523 25.2243C68.0663 23.3243 70.3307 20.8507 71.9854 17.9779C72.074 17.8242 72.2238 17.7155 72.3973 17.6791C72.5708 17.6428 72.7515 17.6823 72.8942 17.7876L86.2452 27.6462L87.6414 25.3958L73.8284 15.4768C73.5904 15.3059 73.5035 14.9919 73.6196 14.7226C74.5556 12.5515 75.2519 10.285 75.6964 7.96354L73.0268 7.44927ZM70.3105 26.6921C70.3105 26.3476 70.5893 26.0684 70.9332 26.0684H74.7904C75.1343 26.0684 75.4131 26.3476 75.4131 26.6921V36.0837H89.1894C89.5333 36.0837 89.8121 36.363 89.8121 36.7074V40.6087C89.8121 40.9532 89.5333 41.2324 89.1894 41.2324H56.609C56.2651 41.2324 55.9863 40.9532 55.9863 40.6087V36.7074C55.9863 36.363 56.2651 36.0837 56.609 36.0837H70.3105V26.6921ZM71.5558 27.3158V36.7074C71.5558 37.0519 71.277 37.3311 70.9332 37.3311H57.2317V39.985H88.5668V37.3311H74.7904C74.4465 37.3311 74.1677 37.0519 74.1677 36.7074V27.3158H71.5558Z" fill="#010A1A"/>
<path d="M98.7385 22.6787C96.8294 23.9933 94.6453 24.8531 92.3535 25.1921V21.441C94.3331 21.0602 96.1717 20.1458 97.6712 18.7964C99.226 17.3795 100.431 15.6203 101.191 13.6574C102.028 11.5059 102.448 9.21435 102.427 6.90545L106.172 7.14928C106.195 9.62154 105.783 12.0785 104.955 14.4076L115.272 21.6848L113.4 24.7417L103.457 17.6711C102.27 19.6669 100.659 21.3765 98.7385 22.6787ZM94.6378 27.9491H122.294V41.8655H94.6378V27.9491ZM98.3827 38.3958H118.511V31.4751H98.4202L98.3827 38.3958ZM122.256 6.51143V25.9421H118.511V6.51143H122.256Z" fill="#010A1A"/>
<path fill-rule="evenodd" clip-rule="evenodd" d="M117.889 6.51143C117.889 6.16697 118.168 5.88773 118.511 5.88773H122.256C122.6 5.88773 122.879 6.16697 122.879 6.51143V25.9421C122.879 26.2866 122.6 26.5658 122.256 26.5658H118.511C118.168 26.5658 117.889 26.2866 117.889 25.9421V6.51143ZM119.134 7.13513V25.3184H121.634V7.13513H119.134ZM101.999 6.45225C102.125 6.33312 102.295 6.27182 102.468 6.28307L106.212 6.5269C106.538 6.54808 106.792 6.81701 106.795 7.14354C106.817 9.53051 106.445 11.9036 105.696 14.1674L115.631 21.1748C115.899 21.3644 115.975 21.7304 115.803 22.011L113.93 25.0679C113.84 25.2151 113.693 25.3182 113.524 25.3528C113.355 25.3874 113.18 25.3502 113.039 25.2503L103.635 18.5628C102.444 20.3919 100.899 21.9668 99.0894 23.1939C97.1025 24.5617 94.8295 25.4564 92.4444 25.8091C92.2653 25.8355 92.0836 25.7827 91.9466 25.6642C91.8096 25.5457 91.7308 25.3734 91.7308 25.1921V21.441C91.7308 21.1418 91.9428 20.8849 92.236 20.8284C94.1039 20.4692 95.8386 19.6066 97.2537 18.3337C98.7364 16.982 99.8856 15.304 100.611 13.4318L100.611 13.431C101.419 11.3534 101.824 9.14056 101.805 6.91099C101.803 6.73759 101.874 6.57138 101.999 6.45225ZM103.044 7.57062C102.986 9.73087 102.556 11.8666 101.772 13.8834C100.976 15.9361 99.7162 17.7759 98.0902 19.2577L98.0874 19.2603C96.6319 20.5701 94.8741 21.4918 92.9761 21.9447V24.4513C94.9131 24.0654 96.7541 23.2883 98.3857 22.1647L98.3894 22.1621C100.234 20.9112 101.782 19.2691 102.922 17.3519C103.011 17.2023 103.158 17.0968 103.328 17.0608C103.498 17.0249 103.676 17.0617 103.818 17.1625L113.217 23.847L114.436 21.8577L104.597 14.9176C104.368 14.7564 104.275 14.4623 104.368 14.1985C105.107 12.1201 105.505 9.93682 105.547 7.73357L103.044 7.57062ZM94.0152 27.9491C94.0152 27.6046 94.294 27.3254 94.6378 27.3254H122.294C122.638 27.3254 122.916 27.6046 122.916 27.9491V41.8655C122.916 42.2099 122.638 42.4892 122.294 42.4892H94.6378C94.294 42.4892 94.0152 42.2099 94.0152 41.8655V27.9491ZM95.2605 28.5728V41.2418H121.671V28.5728H95.2605ZM97.7975 31.4717C97.7994 31.1286 98.0776 30.8514 98.4202 30.8514H118.511C118.855 30.8514 119.134 31.1306 119.134 31.4751V38.3958C119.134 38.7402 118.855 39.0195 118.511 39.0195H98.3827C98.217 39.0195 98.0581 38.9533 97.9412 38.8356C97.8244 38.7179 97.7592 38.5584 97.7601 38.3924L97.7975 31.4717ZM99.0395 32.0988L99.0088 37.7721H117.889V32.0988H99.0395Z" fill="#010A1A"/>
<path d="M149.145 13.3382H126.994V9.94358H136.15V5.92988H139.895V9.94358H149.07L149.145 13.3382ZM133.117 29.1492C131.747 28.6582 130.55 27.7782 129.671 26.617C128.843 25.4714 128.397 24.093 128.397 22.6784C128.397 21.2638 128.843 19.8854 129.671 18.7398C130.55 17.5786 131.747 16.6988 133.117 16.2079C134.695 15.6086 136.372 15.3159 138.06 15.3452C139.741 15.3136 141.413 15.6065 142.984 16.2079C144.346 16.704 145.54 17.5751 146.43 18.721C147.245 19.8789 147.683 21.2613 147.683 22.6784C147.683 24.0955 147.245 25.4779 146.43 26.6358C145.54 27.7817 144.346 28.653 142.984 29.1492C141.413 29.7506 139.741 30.0434 138.06 30.0119C136.372 30.0412 134.695 29.7485 133.117 29.1492ZM133.117 38.1705H157.458V41.9216H129.372V32.1125H133.117V38.1705ZM133.66 19.6963C133.156 20.0134 132.74 20.4533 132.452 20.9748C132.164 21.4963 132.013 22.0823 132.012 22.6784C132.006 23.2783 132.154 23.8696 132.443 24.3953C132.731 24.921 133.151 25.3632 133.66 25.6792C134.989 26.4285 136.488 26.8224 138.013 26.8224C139.538 26.8224 141.038 26.4285 142.367 25.6792C142.871 25.3596 143.285 24.9162 143.57 24.3909C143.856 23.8657 144.002 23.2762 143.996 22.6784C143.993 22.0848 143.843 21.5011 143.559 20.9803C143.274 20.4595 142.865 20.0182 142.367 19.6963C141.042 18.9345 139.541 18.5337 138.013 18.5337C136.485 18.5337 134.985 18.9345 133.66 19.6963ZM161.147 16.3578V20.334H156.56V33.4628H152.815V6.6426H156.56V16.4517L161.147 16.3578Z" fill="#010A1A"/>
<path fill-rule="evenodd" clip-rule="evenodd" d="M135.527 5.92988C135.527 5.58542 135.806 5.30618 136.15 5.30618H139.895C140.239 5.30618 140.518 5.58542 140.518 5.92988V9.31988H149.07C149.408 9.31988 149.685 9.5908 149.692 9.9298L149.767 13.3244C149.771 13.4922 149.707 13.6544 149.59 13.7743C149.473 13.8943 149.312 13.9619 149.145 13.9619H126.994C126.65 13.9619 126.371 13.6827 126.371 13.3382V9.94358C126.371 9.59912 126.65 9.31988 126.994 9.31988H135.527V5.92988ZM136.773 6.55358V9.94358C136.773 10.288 136.494 10.5673 136.15 10.5673H127.616V12.7145H148.508L148.461 10.5673H139.895C139.551 10.5673 139.272 10.288 139.272 9.94358V6.55358H136.773ZM152.192 6.6426C152.192 6.29814 152.471 6.0189 152.815 6.0189H156.56C156.904 6.0189 157.182 6.29814 157.182 6.6426V15.8151L161.134 15.7342C161.302 15.7308 161.463 15.795 161.583 15.9123C161.702 16.0296 161.77 16.1902 161.77 16.3578V20.334C161.77 20.6784 161.491 20.9577 161.147 20.9577H157.182V33.4628C157.182 33.8073 156.904 34.0865 156.56 34.0865H152.815C152.471 34.0865 152.192 33.8073 152.192 33.4628V6.6426ZM153.437 7.2663V32.8391H155.937V20.334C155.937 19.9895 156.216 19.7103 156.56 19.7103H160.524V16.9944L156.572 17.0753C156.405 17.0787 156.243 17.0145 156.124 16.8972C156.004 16.7799 155.937 16.6193 155.937 16.4517V7.2663H153.437ZM142.762 16.7905C141.266 16.2176 139.673 15.9387 138.072 15.9688C138.064 15.9689 138.057 15.9689 138.049 15.9688C136.441 15.9408 134.842 16.2198 133.337 16.791L133.327 16.7951C132.073 17.2445 130.977 18.0491 130.172 19.1111C129.423 20.1493 129.02 21.3975 129.02 22.6784C129.02 23.9593 129.423 25.2075 130.172 26.2457C130.977 27.3077 132.073 28.1126 133.327 28.562L133.337 28.566C134.842 29.1372 136.441 29.4162 138.049 29.3883C138.053 29.3882 138.057 29.3882 138.06 29.3882C138.064 29.3882 138.068 29.3882 138.072 29.3883C139.673 29.4183 141.266 29.1394 142.762 28.5666L142.772 28.5631C144.019 28.1087 145.113 27.312 145.929 26.2644C146.665 25.2141 147.061 23.962 147.061 22.6784C147.061 21.3949 146.665 20.1427 145.929 19.0924C145.113 18.0448 144.019 17.2483 142.772 16.794L142.762 16.7905ZM143.202 15.6235C141.561 14.996 139.815 14.6899 138.059 14.7214C136.299 14.6922 134.548 14.998 132.901 15.6226C131.42 16.1548 130.126 17.1069 129.175 18.3631L129.167 18.3739C128.262 19.626 127.774 21.1324 127.774 22.6784C127.774 24.2244 128.262 25.7308 129.167 26.9829L129.175 26.9937C130.126 28.2499 131.42 29.2022 132.901 29.7344C134.548 30.3591 136.299 30.6648 138.06 30.6357C139.816 30.6672 141.561 30.361 143.202 29.7336C144.672 29.197 145.961 28.2558 146.921 27.0186C146.924 27.0148 146.927 27.011 146.93 27.0072C146.933 27.0033 146.936 26.9993 146.939 26.9953C147.828 25.7322 148.306 24.2243 148.306 22.6784C148.306 21.1325 147.828 19.6246 146.939 18.3615C146.933 18.3536 146.927 18.3458 146.921 18.3382C145.961 17.1009 144.672 16.1601 143.202 15.6235ZM133.35 19.1554C134.769 18.3394 136.377 17.91 138.013 17.91C139.649 17.91 141.257 18.3394 142.677 19.1554C142.686 19.1608 142.695 19.1664 142.704 19.1722C143.289 19.5504 143.771 20.069 144.105 20.6809C144.439 21.2922 144.615 21.9772 144.618 22.6739C144.625 23.3773 144.453 24.0709 144.117 24.6889C143.782 25.3075 143.293 25.8298 142.699 26.2063C142.69 26.212 142.681 26.2175 142.672 26.2228C141.25 27.0246 139.645 27.4461 138.013 27.4461C136.381 27.4461 134.776 27.0246 133.354 26.2228C133.347 26.2184 133.339 26.214 133.332 26.2094C132.732 25.8368 132.238 25.3155 131.897 24.6959C131.557 24.077 131.383 23.381 131.389 22.6749C131.39 21.9744 131.569 21.2857 131.907 20.6728C132.247 20.0591 132.735 19.5414 133.328 19.1682C133.332 19.1657 133.336 19.1633 133.34 19.1609C133.343 19.1591 133.347 19.1572 133.35 19.1554ZM133.981 20.2309C133.571 20.4914 133.232 20.851 132.997 21.2768C132.76 21.7061 132.635 22.1885 132.635 22.6791V22.6848C132.63 23.1774 132.751 23.663 132.988 24.0947C133.223 24.5227 133.564 24.8833 133.977 25.1424C135.21 25.8348 136.6 26.1987 138.013 26.1987C139.426 26.1987 140.814 25.8353 142.047 25.1438C142.455 24.8816 142.791 24.5202 143.023 24.093C143.258 23.6612 143.378 23.1765 143.373 22.685L143.373 22.6806C143.371 22.1908 143.247 21.7093 143.013 21.2797C142.78 20.8546 142.447 20.4937 142.042 20.229C140.815 19.5268 139.426 19.1574 138.013 19.1574C136.599 19.1574 135.209 19.5275 133.981 20.2309ZM128.749 32.1125C128.749 31.768 129.028 31.4888 129.372 31.4888H133.117C133.461 31.4888 133.739 31.768 133.739 32.1125V37.5468H157.458C157.802 37.5468 158.081 37.826 158.081 38.1705V41.9216C158.081 42.266 157.802 42.5453 157.458 42.5453H129.372C129.028 42.5453 128.749 42.266 128.749 41.9216V32.1125ZM129.994 32.7362V41.2979H156.836V38.7942H133.117C132.773 38.7942 132.494 38.5149 132.494 38.1705V32.7362H129.994Z" fill="#010A1A"/>
<path d="M204.139 24.1418V27.4615H171.559V24.1418H185.92V19.9594H189.665V24.1418H204.139ZM187.137 16.3958C185.285 18.0082 183.116 19.2155 180.771 19.9406C178.212 20.7803 175.543 21.2353 172.851 21.2909V18.0275C175.664 17.9583 178.44 17.3604 181.033 16.2646C183.223 15.5068 185.04 13.9357 186.107 11.8756H173.468V8.64974H185.92V5.1237H189.777V8.64974H202.192V11.8756H190.114C189.93 12.5337 189.659 13.1644 189.309 13.7512L202.941 18.1962L201.948 21.2909L187.137 16.3958ZM198.26 31.7566C200.9 32.6756 202.229 34.2323 202.229 36.3704C202.229 38.5085 200.9 40.1214 198.26 41.003C194.885 42.0482 191.36 42.5236 187.83 42.4096C184.298 42.526 180.772 42.0441 177.401 40.9842C174.742 40.0277 173.431 38.5085 173.431 36.3704C173.431 34.2323 174.742 32.6194 177.382 31.7566C184.215 29.8815 191.426 29.8815 198.26 31.7566ZM195.301 38.5273C197.267 38.096 198.241 37.3832 198.241 36.3704C198.241 35.3576 197.267 34.6448 195.282 34.1947C190.33 33.2878 185.255 33.2878 180.303 34.1947C178.43 34.6448 177.344 35.3764 177.344 36.3704C177.344 37.3644 178.318 38.096 180.284 38.5273C185.239 39.4038 190.309 39.4038 195.264 38.5273H195.301Z" fill="#010A1A"/>
<path fill-rule="evenodd" clip-rule="evenodd" d="M185.298 5.1237C185.298 4.77924 185.576 4.5 185.92 4.5H189.777C190.121 4.5 190.4 4.77924 190.4 5.1237V8.02604H202.192C202.536 8.02604 202.814 8.30528 202.814 8.64974V11.8756C202.814 12.2201 202.536 12.4993 202.192 12.4993H190.572C190.468 12.8026 190.347 13.0995 190.209 13.3887L203.133 17.6032C203.46 17.7095 203.638 18.0599 203.534 18.387L202.541 21.4817C202.49 21.64 202.379 21.7714 202.231 21.8468C202.083 21.9222 201.911 21.9353 201.753 21.8832L187.275 17.0979C185.419 18.6505 183.272 19.8193 180.96 20.535C178.344 21.3928 175.615 21.8577 172.863 21.9145C172.696 21.9179 172.534 21.8538 172.415 21.7365C172.295 21.6191 172.228 21.4586 172.228 21.2909V18.0275C172.228 17.689 172.497 17.4123 172.835 17.404C175.571 17.3367 178.27 16.7554 180.791 15.6899C180.804 15.6845 180.817 15.6796 180.83 15.6751C182.533 15.0859 183.993 13.9687 185.007 12.4993H173.468C173.125 12.4993 172.846 12.2201 172.846 11.8756V8.64974C172.846 8.30528 173.125 8.02604 173.468 8.02604H185.298V5.1237ZM186.543 5.7474V8.64974C186.543 8.9942 186.264 9.27344 185.92 9.27344H174.091V11.2519H186.107C186.325 11.2519 186.527 11.3656 186.64 11.5518C186.753 11.7379 186.76 11.9696 186.66 12.163C185.522 14.3587 183.588 16.0347 181.256 16.8472C178.783 17.8896 176.15 18.4916 173.473 18.6281V20.6466C175.888 20.5389 178.278 20.1023 180.577 19.3479L180.587 19.3446C182.85 18.6452 184.942 17.4804 186.729 15.9249C186.895 15.7807 187.124 15.7346 187.332 15.8035L201.547 20.5016L202.158 18.597L189.117 14.3442C188.936 14.2855 188.793 14.1478 188.726 13.9702C188.66 13.7925 188.678 13.5942 188.775 13.4313C189.097 12.8919 189.345 12.3121 189.515 11.7071C189.59 11.4379 189.835 11.2519 190.114 11.2519H201.569V9.27344H189.777C189.434 9.27344 189.155 8.9942 189.155 8.64974V5.7474H186.543ZM185.298 19.9594C185.298 19.6149 185.576 19.3357 185.92 19.3357H189.665C190.009 19.3357 190.288 19.6149 190.288 19.9594V23.5181H204.139C204.483 23.5181 204.762 23.7973 204.762 24.1418V27.4615C204.762 27.806 204.483 28.0852 204.139 28.0852H171.559C171.215 28.0852 170.936 27.806 170.936 27.4615V24.1418C170.936 23.7973 171.215 23.5181 171.559 23.5181H185.298V19.9594ZM186.543 20.5831V24.1418C186.543 24.4863 186.264 24.7655 185.92 24.7655H172.181V26.8378H203.516V24.7655H189.665C189.321 24.7655 189.042 24.4863 189.042 24.1418V20.5831H186.543ZM177.561 32.3542C176.325 32.7603 175.453 33.3242 174.892 33.9882C174.336 34.6462 174.054 35.4385 174.054 36.3704C174.054 37.2995 174.334 38.0667 174.89 38.7131C175.456 39.3698 176.338 39.9377 177.599 40.3929C180.9 41.4291 184.352 41.9002 187.81 41.7863C187.823 41.7858 187.837 41.7858 187.85 41.7862C191.309 41.8979 194.763 41.4325 198.069 40.4091C199.311 39.9934 200.192 39.4233 200.76 38.754C201.321 38.0924 201.607 37.3 201.607 36.3704C201.607 35.4423 201.322 34.6651 200.762 34.0131C200.196 33.3536 199.317 32.7877 198.075 32.3526C191.36 30.5139 184.276 30.5145 177.561 32.3542ZM177.217 31.1551C184.158 29.2504 191.483 29.2504 198.424 31.1551C198.438 31.1588 198.451 31.1629 198.464 31.1675C199.851 31.6505 200.951 32.3199 201.706 33.1996C202.471 34.0902 202.852 35.1604 202.852 36.3704C202.852 37.579 202.472 38.6621 201.709 39.5618C200.953 40.4527 199.851 41.129 198.457 41.5946L198.444 41.5988C195.01 42.6625 191.423 43.1474 187.83 43.0336C184.235 43.1499 180.646 42.6582 177.214 41.5793C177.206 41.5767 177.198 41.574 177.19 41.5712C175.798 41.0705 174.7 40.4022 173.947 39.5277C173.184 38.6408 172.808 37.5794 172.808 36.3704C172.808 35.1642 173.182 34.081 173.941 33.1823C174.693 32.2921 175.792 31.62 177.189 31.1637C177.198 31.1606 177.208 31.1577 177.217 31.1551ZM180.191 33.5812C185.217 32.6607 190.368 32.6607 195.394 33.5812C195.399 33.582 195.404 33.5829 195.408 33.5839C195.412 33.5847 195.416 33.5855 195.42 33.5864C196.446 33.8192 197.282 34.1338 197.874 34.5686C198.489 35.0205 198.864 35.6241 198.864 36.3704C198.864 37.1161 198.49 37.7201 197.876 38.1702C197.285 38.6034 196.453 38.9131 195.434 39.1366C195.397 39.1449 195.358 39.1496 195.32 39.1508C190.31 40.0307 185.185 40.0276 180.176 39.1415C180.171 39.1406 180.166 39.1397 180.161 39.1387C180.158 39.138 180.154 39.1373 180.151 39.1366C179.13 38.9125 178.298 38.5975 177.708 38.162C177.097 37.7116 176.722 37.1088 176.722 36.3704C176.722 35.609 177.149 35.0097 177.758 34.5719C178.357 34.1414 179.185 33.822 180.158 33.5882C180.169 33.5856 180.18 33.5832 180.191 33.5812ZM180.432 34.8051C179.54 35.0209 178.894 35.2908 178.485 35.5853C178.083 35.8743 177.967 36.1378 177.967 36.3704C177.967 36.626 178.078 36.886 178.446 37.1578C178.833 37.4431 179.467 37.7084 180.405 37.9154C185.284 38.777 190.276 38.7762 195.155 37.9131C195.18 37.9089 195.204 37.906 195.228 37.9046C196.143 37.6989 196.761 37.4418 197.14 37.1636C197.505 36.8962 197.618 36.6375 197.618 36.3704C197.618 36.1039 197.506 35.8448 197.138 35.5745C196.748 35.2885 196.109 35.0227 195.158 34.8059C190.289 33.9159 185.3 33.9156 180.432 34.8051Z" fill="#010A1A"/>
<path d="M239.378 33.2006H225.016V43.1411H221.122V33.1818H206.798V29.2432H239.378V33.2006ZM237.094 24.9483H209.007V7.5995H237.094V24.9483ZM233.349 11.4442H212.827V21.1221H233.311L233.349 11.4442Z" fill="#010A1A"/>
<path fill-rule="evenodd" clip-rule="evenodd" d="M208.384 7.5995C208.384 7.25504 208.663 6.9758 209.007 6.9758H237.094C237.437 6.9758 237.716 7.25504 237.716 7.5995V24.9483C237.716 25.2928 237.437 25.572 237.094 25.572H209.007C208.663 25.572 208.384 25.2928 208.384 24.9483V7.5995ZM209.63 8.2232V24.3246H236.471V8.2232H209.63ZM212.204 11.4442C212.204 11.0998 212.483 10.8205 212.827 10.8205H233.349C233.514 10.8205 233.673 10.8866 233.79 11.0041C233.907 11.1216 233.972 11.2808 233.971 11.4467L233.934 21.1245C233.933 21.4681 233.654 21.7458 233.311 21.7458H212.827C212.483 21.7458 212.204 21.4666 212.204 21.1221V11.4442ZM213.449 12.0679V20.4984H232.691L232.724 12.0679H213.449ZM206.175 29.2432C206.175 28.8987 206.454 28.6195 206.798 28.6195H239.378C239.722 28.6195 240.001 28.8987 240.001 29.2432V33.2006C240.001 33.545 239.722 33.8243 239.378 33.8243H225.639V43.1411C225.639 43.4855 225.36 43.7648 225.016 43.7648H221.122C220.778 43.7648 220.499 43.4855 220.499 43.1411V33.8055H206.798C206.454 33.8055 206.175 33.5262 206.175 33.1818V29.2432ZM207.42 29.8669V32.5581H221.122C221.466 32.5581 221.744 32.8373 221.744 33.1818V42.5174H224.394V33.2006C224.394 32.8561 224.672 32.5769 225.016 32.5769H238.755V29.8669H207.42Z" fill="#010A1A"/>
</g>
<defs>
<clipPath id="clip0_324_14638">
<rect width="240" height="48" fill="white"/>
</clipPath>
</defs>
</svg>
