<svg width="current" height="current" viewBox="0 0 24 24" fill="none" xmlns="http://www.w3.org/2000/svg">
<path d="M1.55 20.95C1.21667 20.95 0.9375 20.8375 0.7125 20.6125C0.4875 20.3875 0.375 20.1083 0.375 19.775V17.925C0.375 17.225 0.554167 16.5917 0.9125 16.025C1.27083 15.4583 1.775 15.025 2.425 14.725C3.675 14.1917 4.8125 13.8 5.8375 13.55C6.8625 13.3 7.91667 13.175 9 13.175C10.1167 13.175 11.1792 13.2958 12.1875 13.5375C13.1958 13.7792 14.325 14.175 15.575 14.725C16.225 15.0083 16.7333 15.4333 17.1 16C17.4667 16.5667 17.65 17.2083 17.65 17.925V19.775C17.65 20.1083 17.5375 20.3875 17.3125 20.6125C17.0875 20.8375 16.8083 20.95 16.475 20.95H1.55ZM18.675 20.95C18.875 20.8667 19.05 20.7167 19.2 20.5C19.35 20.2833 19.425 20.025 19.425 19.725V17.975C19.425 16.8917 19.1625 15.9792 18.6375 15.2375C18.1125 14.4958 17.4 13.825 16.5 13.225C17.5167 13.375 18.4792 13.5708 19.3875 13.8125C20.2958 14.0542 21.05 14.325 21.65 14.625C22.25 14.9417 22.7292 15.4 23.0875 16C23.4458 16.6 23.625 17.2833 23.625 18.05V19.775C23.625 20.1083 23.5125 20.3875 23.2875 20.6125C23.0625 20.8375 22.7833 20.95 22.45 20.95H18.675ZM9 11.65C7.8 11.65 6.825 11.275 6.075 10.525C5.325 9.77499 4.95 8.79166 4.95 7.57499C4.95 6.37499 5.325 5.39999 6.075 4.64999C6.825 3.89999 7.8 3.52499 9 3.52499C10.2 3.52499 11.1792 3.89999 11.9375 4.64999C12.6958 5.39999 13.075 6.37499 13.075 7.57499C13.075 8.79166 12.6958 9.77499 11.9375 10.525C11.1792 11.275 10.2 11.65 9 11.65ZM18.925 7.57499C18.925 8.77499 18.5458 9.75416 17.7875 10.5125C17.0292 11.2708 16.05 11.65 14.85 11.65C14.65 11.65 14.4458 11.6333 14.2375 11.6C14.0292 11.5667 13.8083 11.5083 13.575 11.425C14.0083 10.975 14.3292 10.425 14.5375 9.77499C14.7458 9.12499 14.85 8.39166 14.85 7.57499C14.85 6.77499 14.7458 6.06249 14.5375 5.43749C14.3292 4.81249 14.0083 4.24999 13.575 3.74999C13.775 3.68333 13.9833 3.62916 14.2 3.58749C14.4167 3.54583 14.6333 3.52499 14.85 3.52499C16.05 3.52499 17.0292 3.90416 17.7875 4.66249C18.5458 5.42083 18.925 6.39166 18.925 7.57499Z" fill="current"/>
</svg>
