<svg width="312" height="42" viewBox="0 0 312 42" fill="none" xmlns="http://www.w3.org/2000/svg">
<rect width="312" height="42" rx="6" fill="#FEE500"/>
<path d="M22 14C18.1336 14 15 16.5413 15 19.6708C15 21.6167 16.2074 23.3302 18.0499 24.3468C17.7567 25.3851 17.1007 27.8102 17.3868 27.9917C17.6032 28.1297 19.9412 26.5105 21.6022 25.3197C21.7348 25.3197 21.8604 25.3343 22 25.3343C25.8664 25.3343 29 22.7929 29 19.6635C29 16.5341 25.8664 14 22 14Z" fill="black"/>
<path d="M110.661 16.915V17.095C110.661 20.875 109.461 23.74 105.156 25.885L106.011 27.085C111.006 24.58 112.191 20.995 112.191 16.915H110.661ZM105.951 16.915V18.175H111.591V16.915H105.951ZM110.571 20.29L105.246 20.635L105.471 22L110.571 21.505V20.29ZM114.171 15.52V29.23H115.746V15.52H114.171ZM115.326 20.95V22.24H117.801V20.95H115.326ZM124.459 16.915V17.095C124.459 20.875 123.259 23.74 118.954 25.885L119.809 27.085C124.804 24.58 125.989 20.995 125.989 16.915H124.459ZM119.749 16.915V18.175H125.389V16.915H119.749ZM124.369 20.29L119.044 20.635L119.269 22L124.369 21.505V20.29ZM127.969 15.52V29.23H129.544V15.52H127.969ZM129.124 20.95V22.24H131.599V20.95H129.124ZM138.123 23.26V26.545H139.683V23.26H138.123ZM138.903 16.345C136.008 16.345 133.863 17.8 133.863 20.02C133.863 22.255 136.008 23.695 138.903 23.695C141.813 23.695 143.943 22.255 143.943 20.02C143.943 17.8 141.813 16.345 138.903 16.345ZM138.903 17.59C140.958 17.59 142.413 18.535 142.413 20.02C142.413 21.52 140.958 22.45 138.903 22.45C136.863 22.45 135.393 21.52 135.393 20.02C135.393 18.535 136.863 17.59 138.903 17.59ZM132.723 26.275V27.565H145.143V26.275H132.723ZM146.522 26.35V27.64H158.942V26.35H146.522ZM151.922 23.56V26.875H153.482V23.56H151.922ZM147.977 16.495V17.755H155.897V19.585H148.007V23.38H149.567V20.83H157.457V16.495H147.977ZM148.007 22.735V24.01H157.772V22.735H148.007ZM172.795 15.535V25.465H174.385V15.535H172.795ZM173.92 19.54V20.845H176.32V19.54H173.92ZM169.03 16.585V17.32C169.03 19.75 167.05 21.745 163.645 22.75L164.305 24.01C168.31 22.795 170.695 20.2 170.695 16.585H169.03ZM164.215 16.585V17.86H169.855V16.585H164.215ZM165.7 27.7V28.975H174.925V27.7H165.7ZM165.7 24.46V28.24H167.275V24.46H165.7ZM187.269 15.535V25.69H188.844V15.535H187.269ZM177.849 16.585V17.86H185.079V16.585H177.849ZM177.669 23.815C179.859 23.815 182.889 23.77 185.484 23.35L185.394 22.18C182.874 22.48 179.724 22.51 177.504 22.51L177.669 23.815ZM179.094 17.695V22.69H180.609V17.695H179.094ZM182.334 17.695V22.69H183.834V17.695H182.334ZM185.259 18.04V19.315H188.109V18.04H185.259ZM185.259 20.725V22H188.109V20.725H185.259ZM179.949 27.7V28.975H189.174V27.7H179.949ZM179.949 24.895V28.585H181.524V24.895H179.949ZM203.702 15.52V29.23H205.277V15.52H203.702ZM204.857 20.95V22.24H207.332V20.95H204.857ZM200.147 16.975V17.245C200.147 20.905 198.332 23.65 194.627 25.54L195.512 26.74C199.997 24.49 201.692 20.965 201.692 16.975H200.147ZM195.317 16.975V18.25H200.957V16.975H195.317ZM218.176 15.535V22.9H219.751V15.535H218.176ZM210.796 23.545V29.08H219.751V23.545H218.191V25.03H212.341V23.545H210.796ZM212.341 26.26H218.191V27.82H212.341V26.26ZM212.356 16.15C210.256 16.15 208.711 17.455 208.711 19.345C208.711 21.22 210.256 22.54 212.356 22.54C214.456 22.54 215.986 21.22 215.986 19.345C215.986 17.455 214.456 16.15 212.356 16.15ZM212.356 17.455C213.586 17.455 214.456 18.205 214.456 19.345C214.456 20.485 213.586 21.235 212.356 21.235C211.126 21.235 210.241 20.485 210.241 19.345C210.241 18.205 211.126 17.455 212.356 17.455Z" fill="black" fill-opacity="0.85"/>
</svg>
