<svg width="312" height="42" viewBox="0 0 312 42" fill="none" xmlns="http://www.w3.org/2000/svg">
<rect width="312" height="42" rx="6" fill="#FEE500"/>
<path d="M22 14C18.1336 14 15 16.5413 15 19.6708C15 21.6167 16.2074 23.3302 18.0499 24.3468C17.7567 25.3851 17.1007 27.8102 17.3868 27.9917C17.6032 28.1297 19.9412 26.5105 21.6022 25.3197C21.7348 25.3197 21.8604 25.3343 22 25.3343C25.8664 25.3343 29 22.7929 29 19.6635C29 16.5341 25.8664 14 22 14Z" fill="black"/>
<path d="M121.509 16.96V18.22H126.144C126.084 18.97 125.964 19.675 125.784 20.335L120.819 20.65L121.029 21.985L125.319 21.565C124.524 23.23 123.099 24.64 120.729 25.825L121.569 27.025C126.489 24.55 127.674 21.01 127.674 16.96H121.509ZM133.224 20.95H131.169V15.595H129.624V29.14H131.169V22.24H133.224V20.95ZM135.308 16.96V18.22H139.943C139.883 18.97 139.763 19.675 139.583 20.335L134.618 20.65L134.828 21.985L139.118 21.565C138.323 23.23 136.898 24.64 134.528 25.825L135.368 27.025C140.288 24.55 141.473 21.01 141.473 16.96H135.308ZM147.023 20.95H144.968V15.595H143.423V29.14H144.968V22.24H147.023V20.95ZM150.922 20.035C150.922 18.565 152.377 17.635 154.402 17.635C156.412 17.635 157.867 18.565 157.867 20.035C157.867 21.505 156.412 22.435 154.402 22.435C152.377 22.435 150.922 21.505 150.922 20.035ZM155.167 26.23V23.65C157.642 23.425 159.382 22.045 159.382 20.035C159.382 17.83 157.267 16.405 154.402 16.405C151.522 16.405 149.422 17.83 149.422 20.035C149.422 22.045 151.147 23.41 153.622 23.635V26.23H148.282V27.49H160.552V26.23H155.167ZM172.335 26.29V23.98H176.565V22.735H168.45V20.845H176.265V16.555H166.905V17.8H174.735V19.615H166.935V23.98H170.79V26.29H165.45V27.565H177.72V26.29H172.335ZM188.383 18.415C188.383 20.17 188.383 22.165 187.858 24.835L189.418 25C189.928 22.135 189.928 20.23 189.928 18.415V16.96H180.553V18.205H188.383V18.415ZM179.248 25.99V27.265H191.503V25.99H179.248ZM204.207 15.61H202.662V25.45H204.207V15.61ZM194.817 19.9C194.817 18.655 195.702 17.845 196.902 17.845C198.087 17.845 198.987 18.655 198.987 19.9C198.987 21.13 198.087 21.955 196.902 21.955C195.702 21.955 194.817 21.13 194.817 19.9ZM200.487 19.9C200.487 17.92 198.942 16.51 196.902 16.51C194.862 16.51 193.302 17.92 193.302 19.9C193.302 21.865 194.862 23.29 196.902 23.29C198.942 23.29 200.487 21.865 200.487 19.9ZM196.917 27.64V24.46H195.357V28.9H204.597V27.64H196.917Z" fill="black" fill-opacity="0.85"/>
</svg>
