<svg width="280" height="42" viewBox="0 0 280 42" fill="none" xmlns="http://www.w3.org/2000/svg">
<rect width="280" height="42" rx="6" fill="#FEE500"/>
<path d="M22 14C18.1336 14 15 16.5413 15 19.6708C15 21.6167 16.2074 23.3302 18.0499 24.3468C17.7567 25.3851 17.1007 27.8102 17.3868 27.9917C17.6032 28.1297 19.9412 26.5105 21.6022 25.3197C21.7348 25.3197 21.8604 25.3343 22 25.3343C25.8664 25.3343 29 22.7929 29 19.6635C29 16.5341 25.8664 14 22 14Z" fill="black"/>
<path d="M90.0255 15.96V17.22H94.6605C94.6005 17.97 94.4805 18.675 94.3005 19.335L89.3355 19.65L89.5455 20.985L93.8355 20.565C93.0405 22.23 91.6155 23.64 89.2455 24.825L90.0855 26.025C95.0055 23.55 96.1905 20.01 96.1905 15.96H90.0255ZM101.741 19.95H99.6855V14.595H98.1405V28.14H99.6855V21.24H101.741V19.95ZM103.824 15.96V17.22H108.459C108.399 17.97 108.279 18.675 108.099 19.335L103.134 19.65L103.344 20.985L107.634 20.565C106.839 22.23 105.414 23.64 103.044 24.825L103.884 26.025C108.804 23.55 109.989 20.01 109.989 15.96H103.824ZM115.539 19.95H113.484V14.595H111.939V28.14H113.484V21.24H115.539V19.95ZM119.438 19.035C119.438 17.565 120.893 16.635 122.918 16.635C124.928 16.635 126.383 17.565 126.383 19.035C126.383 20.505 124.928 21.435 122.918 21.435C120.893 21.435 119.438 20.505 119.438 19.035ZM123.683 25.23V22.65C126.158 22.425 127.898 21.045 127.898 19.035C127.898 16.83 125.783 15.405 122.918 15.405C120.038 15.405 117.938 16.83 117.938 19.035C117.938 21.045 119.663 22.41 122.138 22.635V25.23H116.798V26.49H129.068V25.23H123.683ZM137.482 25.29V22.98H141.712V21.735H133.597V19.845H141.412V15.555H132.052V16.8H139.882V18.615H132.082V22.98H135.937V25.29H130.597V26.565H142.867V25.29H137.482ZM148.29 15.645V16.905H153.015C152.745 19.05 150.825 20.805 147.72 21.75L148.365 22.98C152.31 21.78 154.695 19.23 154.695 15.645H148.29ZM151.305 23.43H149.745V27.9H158.865V26.64H151.305V23.43ZM158.325 18.57V14.61H156.78V24.42H158.325V19.845H160.26V18.57H158.325ZM171.239 24.645H172.784V14.61H171.239V17.1H169.244V18.345H171.239V19.74H169.244V20.985H171.239V24.645ZM164.639 16.905H166.364V21.42C165.779 21.45 165.209 21.465 164.639 21.48V16.905ZM169.379 21.18C168.899 21.24 168.374 21.285 167.849 21.315V16.905H169.064V15.645H161.924V16.905H163.154V21.51C162.599 21.51 162.059 21.51 161.564 21.51L161.744 22.785C163.919 22.785 166.919 22.74 169.469 22.32L169.379 21.18ZM165.539 26.64V23.85H163.994V27.9H173.129V26.64H165.539ZM179.392 16.035V17.295H184.132C183.817 20.415 182.032 22.8 178.717 24.495L179.572 25.68C183.997 23.445 185.677 19.965 185.677 16.035H179.392ZM191.272 19.95H189.217V14.595H187.672V28.14H189.217V21.24H191.272V19.95ZM202.146 14.61V21.885H203.691V14.61H202.146ZM194.841 22.515V27.99H203.691V22.515H202.161V24.015H196.371V22.515H194.841ZM196.371 25.215H202.161V26.745H196.371V25.215ZM196.386 15.225C194.316 15.225 192.786 16.515 192.786 18.375C192.786 20.235 194.316 21.525 196.386 21.525C198.456 21.525 199.971 20.235 199.971 18.375C199.971 16.515 198.456 15.225 196.386 15.225ZM196.386 16.5C197.601 16.5 198.471 17.25 198.471 18.375C198.471 19.515 197.601 20.25 196.386 20.25C195.156 20.25 194.301 19.515 194.301 18.375C194.301 17.25 195.156 16.5 196.386 16.5Z" fill="black" fill-opacity="0.85"/>
</svg>
