<svg width="280" height="42" viewBox="0 0 280 42" fill="none" xmlns="http://www.w3.org/2000/svg">
<rect width="280" height="42" rx="6" fill="#FEE500"/>
<path d="M22 14C18.1336 14 15 16.5413 15 19.6708C15 21.6167 16.2074 23.3302 18.0499 24.3468C17.7567 25.3851 17.1007 27.8102 17.3868 27.9917C17.6032 28.1297 19.9412 26.5105 21.6022 25.3197C21.7348 25.3197 21.8604 25.3343 22 25.3343C25.8664 25.3343 29 22.7929 29 19.6635C29 16.5341 25.8664 14 22 14Z" fill="black"/>
<path d="M105.509 16.96V18.22H110.144C110.084 18.97 109.964 19.675 109.784 20.335L104.819 20.65L105.029 21.985L109.319 21.565C108.524 23.23 107.099 24.64 104.729 25.825L105.569 27.025C110.489 24.55 111.674 21.01 111.674 16.96H105.509ZM117.224 20.95H115.169V15.595H113.624V29.14H115.169V22.24H117.224V20.95ZM119.308 16.96V18.22H123.943C123.883 18.97 123.763 19.675 123.583 20.335L118.618 20.65L118.828 21.985L123.118 21.565C122.323 23.23 120.898 24.64 118.528 25.825L119.368 27.025C124.288 24.55 125.473 21.01 125.473 16.96H119.308ZM131.023 20.95H128.968V15.595H127.423V29.14H128.968V22.24H131.023V20.95ZM134.922 20.035C134.922 18.565 136.377 17.635 138.402 17.635C140.412 17.635 141.867 18.565 141.867 20.035C141.867 21.505 140.412 22.435 138.402 22.435C136.377 22.435 134.922 21.505 134.922 20.035ZM139.167 26.23V23.65C141.642 23.425 143.382 22.045 143.382 20.035C143.382 17.83 141.267 16.405 138.402 16.405C135.522 16.405 133.422 17.83 133.422 20.035C133.422 22.045 135.147 23.41 137.622 23.635V26.23H132.282V27.49H144.552V26.23H139.167ZM156.335 26.29V23.98H160.565V22.735H152.45V20.845H160.265V16.555H150.905V17.8H158.735V19.615H150.935V23.98H154.79V26.29H149.45V27.565H161.72V26.29H156.335ZM172.383 18.415C172.383 20.17 172.383 22.165 171.858 24.835L173.418 25C173.928 22.135 173.928 20.23 173.928 18.415V16.96H164.553V18.205H172.383V18.415ZM163.248 25.99V27.265H175.503V25.99H163.248ZM188.207 15.61H186.662V25.45H188.207V15.61ZM178.817 19.9C178.817 18.655 179.702 17.845 180.902 17.845C182.087 17.845 182.987 18.655 182.987 19.9C182.987 21.13 182.087 21.955 180.902 21.955C179.702 21.955 178.817 21.13 178.817 19.9ZM184.487 19.9C184.487 17.92 182.942 16.51 180.902 16.51C178.862 16.51 177.302 17.92 177.302 19.9C177.302 21.865 178.862 23.29 180.902 23.29C182.942 23.29 184.487 21.865 184.487 19.9ZM180.917 27.64V24.46H179.357V28.9H188.597V27.64H180.917Z" fill="black" fill-opacity="0.85"/>
</svg>
