<svg width="17" height="16" viewBox="0 0 17 16" fill="none" xmlns="http://www.w3.org/2000/svg">
<path fill-rule="evenodd" clip-rule="evenodd" d="M7.36668 8.00707C7.37059 8.00317 7.37059 7.99683 7.36668 7.99293L4.03051 4.65675C4.0266 4.65285 4.0266 4.64652 4.03051 4.64261L4.66605 4.00707C4.66995 4.00317 4.67629 4.00317 4.68019 4.00707L8.01637 7.34325C8.02027 7.34715 8.0266 7.34715 8.03051 7.34325L11.3667 4.00707C11.3706 4.00317 11.3769 4.00317 11.3808 4.00707L12.0164 4.64261C12.0203 4.64652 12.0203 4.65285 12.0164 4.65675L8.68019 7.99293C8.67629 7.99683 8.67629 8.00317 8.68019 8.00707L12.0164 11.3432C12.0203 11.3472 12.0203 11.3535 12.0164 11.3574L11.3808 11.9929C11.3769 11.9968 11.3706 11.9968 11.3667 11.9929L8.03051 8.65675C8.0266 8.65285 8.02027 8.65285 8.01637 8.65675L4.68019 11.9929C4.67629 11.9968 4.66995 11.9968 4.66605 11.9929L4.03051 11.3574C4.0266 11.3535 4.0266 11.3472 4.03051 11.3432L7.36668 8.00707Z" fill="#ED4F1D" stroke="#ED4F1D" stroke-width="3"/>
</svg>
