<svg width="24" height="24" viewBox="0 0 24 24" fill="none" xmlns="http://www.w3.org/2000/svg">
<path d="M7.05 16.9H13.925V15.4H7.05V16.9ZM7.05 12.75H16.975V11.25H7.05V12.75ZM7.05 8.57501H16.975V7.07501H7.05V8.57501ZM4.725 21.625C4.075 21.625 3.52083 21.3958 3.0625 20.9375C2.60417 20.4792 2.375 19.925 2.375 19.275V4.72501C2.375 4.07501 2.60417 3.51667 3.0625 3.05001C3.52083 2.58334 4.075 2.35001 4.725 2.35001H19.275C19.925 2.35001 20.4833 2.58334 20.95 3.05001C21.4167 3.51667 21.65 4.07501 21.65 4.72501V19.275C21.65 19.925 21.4167 20.4792 20.95 20.9375C20.4833 21.3958 19.925 21.625 19.275 21.625H4.725Z" fill="#3C3C3C"/>
</svg>
