<svg width="32" height="32" viewBox="0 0 32 32" fill="none" xmlns="http://www.w3.org/2000/svg">
<g clip-path="url(#clip0_1707_87071)">
<path d="M21.3327 16.0002C21.3327 17.4668 22.5327 18.6668 23.9993 18.6668C25.466 18.6668 26.666 17.4668 26.666 16.0002C26.666 14.5335 25.466 13.3335 23.9993 13.3335C22.5327 13.3335 21.3327 14.5335 21.3327 16.0002ZM18.666 16.0002C18.666 14.5335 17.466 13.3335 15.9993 13.3335C14.5327 13.3335 13.3327 14.5335 13.3327 16.0002C13.3327 17.4668 14.5327 18.6668 15.9993 18.6668C17.466 18.6668 18.666 17.4668 18.666 16.0002ZM10.666 16.0002C10.666 14.5335 9.46601 13.3335 7.99935 13.3335C6.53268 13.3335 5.33268 14.5335 5.33268 16.0002C5.33268 17.4668 6.53268 18.6668 7.99935 18.6668C9.46601 18.6668 10.666 17.4668 10.666 16.0002Z" fill="#3C3C3C"/>
</g>
<defs>
<clipPath id="clip0_1707_87071">
<rect width="32" height="32" fill="white" transform="translate(32) rotate(90)"/>
</clipPath>
</defs>
</svg>
