<svg width="24" height="24" viewBox="0 0 24 24" fill="none" xmlns="http://www.w3.org/2000/svg">
<g clip-path="url(#clip0_612_14501)">
<path d="M12.3 3.225C12.1222 3.09167 11.8778 3.09167 11.7 3.225L4.2 8.85C4.0741 8.94443 4 9.09262 4 9.25V20.5C4 20.7761 4.22386 21 4.5 21H8.5C8.77614 21 9 20.7761 9 20.5V14.5C9 14.2239 9.22386 14 9.5 14H14.5C14.7761 14 15 14.2239 15 14.5V20.5C15 20.7761 15.2239 21 15.5 21H19.5C19.7761 21 20 20.7761 20 20.5V9.25C20 9.09262 19.9259 8.94443 19.8 8.85L12.3 3.225Z" fill="#BDBDBD"/>
</g>
<defs>
<clipPath id="clip0_612_14501">
<rect width="24" height="24" fill="white"/>
</clipPath>
</defs>
</svg>
