<svg width="16" height="16" viewBox="0 0 16 16" fill="none" xmlns="http://www.w3.org/2000/svg">
<path d="M7.31675 11.75H4.66675C3.6223 11.75 2.73619 11.3861 2.00841 10.6583C1.28064 9.93055 0.916748 9.04444 0.916748 8C0.916748 6.95555 1.28064 6.06666 2.00841 5.33333C2.73619 4.6 3.6223 4.23333 4.66675 4.23333H7.31675V5.81666H4.66675C4.05564 5.81666 3.53897 6.02777 3.11675 6.45C2.69453 6.87222 2.48341 7.38889 2.48341 8C2.48341 8.61111 2.69453 9.12777 3.11675 9.55C3.53897 9.97222 4.05564 10.1833 4.66675 10.1833H7.31675V11.75ZM5.13341 8.6V7.4H10.8667V8.6H5.13341ZM8.68341 11.75V10.1833H11.3334C11.9445 10.1833 12.4612 9.97222 12.8834 9.55C13.3056 9.12777 13.5167 8.61111 13.5167 8C13.5167 7.38889 13.3056 6.87222 12.8834 6.45C12.4612 6.02777 11.9445 5.81666 11.3334 5.81666H8.68341V4.23333H11.3334C12.3779 4.23333 13.2667 4.6 14.0001 5.33333C14.7334 6.06666 15.1001 6.95555 15.1001 8C15.1001 9.04444 14.7334 9.93055 14.0001 10.6583C13.2667 11.3861 12.3779 11.75 11.3334 11.75H8.68341Z" fill="#FFFFFF"/>
</svg>
