<svg width="380" height="320" viewBox="0 0 380 320" fill="none" xmlns="http://www.w3.org/2000/svg">
<rect width="380" height="320" fill="white"/>
<path d="M113.626 105.846C102.336 91.2134 111.529 72.2345 111.529 72.2345L119.843 72.8448L132.601 100.346L154.738 91.3697L147.575 67.5381C147.575 67.5381 150.256 65.4318 151.4 65.3202C152.537 65.2011 162.675 65.7816 168.294 77.6528C173.913 89.5239 169.844 102.787 169.844 102.787C169.623 109.47 173.942 115.075 173.942 115.075L247.21 210.059C250.821 214.74 250.356 221.565 245.888 225.42C241.119 229.536 233.964 228.762 230.147 223.82L156.982 128.97C156.982 128.97 156.576 128.486 155.845 127.735C151.385 123.217 145.412 120.56 139.106 120.166C132.801 119.771 123.453 118.588 113.626 105.846Z" fill="#D7D8D9"/>
<mask id="mask0_1015_60434" style="mask-type:luminance" maskUnits="userSpaceOnUse" x="108" y="65" width="142" height="164">
<path d="M113.626 105.846C102.336 91.2134 111.529 72.2345 111.529 72.2345L119.843 72.8448L132.601 100.346L154.738 91.3697L147.575 67.5381C147.575 67.5381 150.256 65.4318 151.4 65.3202C152.537 65.2011 162.675 65.7816 168.294 77.6528C173.913 89.5239 169.844 102.787 169.844 102.787C169.623 109.47 173.942 115.075 173.942 115.075L247.21 210.059C250.821 214.74 250.356 221.565 245.888 225.42C241.119 229.536 233.964 228.762 230.147 223.82L156.982 128.97C156.982 128.97 156.576 128.486 155.845 127.735C151.385 123.217 145.412 120.56 139.106 120.166C132.801 119.771 123.453 118.588 113.626 105.846Z" fill="white"/>
</mask>
<g mask="url(#mask0_1015_60434)">
<path d="M112.902 61.0703L112.223 69.0563C112.223 69.0563 105.267 94.3318 125.439 108.912C138.471 118.327 147.413 113.78 152.995 121.021C164.395 133.704 223.442 215.44 235.359 223.612C247.277 231.784 245.674 233.198 245.674 233.198L217.27 243.007L132.343 175.569L84.187 113.132L89.9684 69.8006L112.909 61.0703H112.902Z" fill="#9A9C9E"/>
<path d="M120.985 71C120.985 71 117.957 74.9967 118.201 77.2519C118.445 79.507 129.956 103.257 129.956 103.257L135.42 98.9772L127.069 77.3933L120.985 71Z" fill="#85888B"/>
<path d="M151.914 69.1293L159.187 94C159.187 94 147.69 89.654 147.404 89.2777C147.117 88.9015 143.187 64 143.187 64L151.914 69.1216V69.1293Z" fill="#B7B9BC"/>
<path d="M159.187 93.5666L134.548 104L130.187 103.185L136.343 93.6842C136.343 93.6842 146.502 92.2497 146.859 92.2262C147.217 92.2027 152.793 90 152.793 90L159.187 93.5666Z" fill="#B7B9BC"/>
<path d="M144.083 59.7596C144.083 59.7596 154.405 65.0737 159.02 72.8439C163.635 80.6215 165.134 93.6239 163.997 97.5388C162.859 101.454 162.018 109.321 172.008 120.782C182.005 132.244 242.315 212.521 243.215 214.293C244.116 216.064 243.481 219.123 241.997 221.683C240.513 224.244 241.377 227.749 241.377 227.749C241.377 227.749 251.773 226.573 253.353 225.338C254.933 224.102 261.136 197.152 261.136 197.152L234.252 148.253L159.936 59.6852C159.936 59.6852 149.111 42.9539 146.232 45.2091C143.352 47.4642 144.083 59.7596 144.083 59.7596Z" fill="#F9F9F9"/>
</g>
<path d="M238.771 221.468C241.185 221.468 243.142 219.496 243.142 217.062C243.142 214.629 241.185 212.656 238.771 212.656C236.357 212.656 234.4 214.629 234.4 217.062C234.4 219.496 236.357 221.468 238.771 221.468Z" fill="white"/>
<path d="M168.287 125.688C169.822 124.482 172.266 125.07 173.75 126.991L226.204 194.987C227.688 196.907 227.644 199.438 226.108 200.644C224.572 201.849 222.128 201.261 220.644 199.341L168.191 131.345C166.706 129.424 166.751 126.894 168.287 125.688Z" fill="#C2C3C4"/>
<mask id="mask1_1015_60434" style="mask-type:luminance" maskUnits="userSpaceOnUse" x="167" y="125" width="61" height="77">
<path d="M168.287 125.688C169.822 124.482 172.266 125.07 173.75 126.991L226.204 194.987C227.688 196.907 227.644 199.438 226.108 200.644C224.572 201.849 222.128 201.261 220.644 199.341L168.191 131.345C166.706 129.424 166.751 126.894 168.287 125.688Z" fill="white"/>
</mask>
<g mask="url(#mask1_1015_60434)">
<path d="M168.309 119.942C168.309 119.942 170.753 132.282 178.41 141.005C186.059 149.728 215.165 189.07 218.887 193.588C222.608 198.106 231.188 201.455 231.188 201.455L221.574 205.735L164.144 133.272L159.854 118.342L168.309 119.935V119.942Z" fill="#A7A9AA"/>
</g>
<path d="M168.287 125.688C169.822 124.482 172.266 125.07 173.75 126.991L226.204 194.987C227.688 196.907 227.644 199.438 226.108 200.644C224.572 201.849 222.128 201.261 220.644 199.341L168.191 131.345C166.706 129.424 166.751 126.894 168.287 125.688Z" stroke="#676767" stroke-width="3" stroke-linecap="round" stroke-linejoin="round"/>
<path d="M238.771 221.468C241.185 221.468 243.142 219.496 243.142 217.062C243.142 214.629 241.185 212.656 238.771 212.656C236.357 212.656 234.4 214.629 234.4 217.062C234.4 219.496 236.357 221.468 238.771 221.468Z" stroke="#474747" stroke-width="4" stroke-linecap="round" stroke-linejoin="round"/>
<path d="M113.626 105.846C102.336 91.2134 111.529 72.2345 111.529 72.2345L119.843 72.8448L132.601 100.346L154.738 91.3697L147.575 67.5381C147.575 67.5381 150.256 65.4318 151.4 65.3202C152.537 65.2011 162.675 65.7816 168.294 77.6528C173.913 89.5239 169.844 102.787 169.844 102.787C169.623 109.47 173.942 115.075 173.942 115.075L247.21 210.059C250.821 214.74 250.356 221.565 245.888 225.42C241.119 229.536 233.964 228.762 230.147 223.82L156.982 128.97C156.982 128.97 156.576 128.486 155.845 127.735C151.385 123.217 145.412 120.56 139.106 120.166C132.801 119.771 123.453 118.588 113.626 105.846Z" stroke="#474747" stroke-width="4" stroke-linecap="round" stroke-linejoin="round"/>
<path d="M209.349 77.4839L205.606 74.2836C205 73.7626 204.919 72.8471 205.436 72.2294L210.959 63.4916L217.818 57.5151C218.335 56.9048 219.243 56.8229 219.856 57.3439L223.6 60.5443L209.342 77.4839H209.349Z" fill="#D7D8D9"/>
<path d="M271.253 106.325C271.379 96.0164 268.987 90.3599 263.981 86.0803L245.522 70.2943C243.063 68.1955 239.696 67.9052 237.001 69.3045C234.904 70.3837 232.46 70.7037 230.289 69.7808C229.218 69.3268 228.236 68.709 227.365 67.9648C225.276 66.1785 223.836 63.6257 223.489 60.7007L209.231 77.6329C215.086 77.3724 218.896 81.5031 220.853 87.5689C220.853 87.5689 225.608 97.9142 219.487 105.23L183.374 148.138L194.383 157.553L230.474 114.675C234.335 110.091 240.693 109.718 244.901 110.076C247.7 110.321 250.446 109.212 252.263 107.054L258.76 99.3358C259.262 98.7404 260.178 98.6957 260.724 99.2614C267.983 106.652 259.189 128.318 261.891 130.632C262.467 131.124 264.261 131.526 264.837 130.841C266.366 129.025 271.128 116.35 271.261 106.317L271.253 106.325Z" fill="#D7D8D9"/>
<mask id="mask2_1015_60434" style="mask-type:luminance" maskUnits="userSpaceOnUse" x="183" y="60" width="89" height="98">
<path d="M271.253 106.325C271.379 96.0164 268.987 90.3599 263.981 86.0803L245.522 70.2943C243.063 68.1955 239.696 67.9052 237.001 69.3045C234.904 70.3837 232.46 70.7037 230.289 69.7808C229.218 69.3268 228.236 68.709 227.365 67.9648C225.276 66.1785 223.836 63.6257 223.489 60.7007L209.231 77.6329C215.086 77.3724 218.896 81.5031 220.853 87.5689C220.853 87.5689 225.608 97.9142 219.487 105.23L183.374 148.138L194.383 157.553L230.474 114.675C234.335 110.091 240.693 109.718 244.901 110.076C247.7 110.321 250.446 109.212 252.263 107.054L258.76 99.3358C259.262 98.7404 260.178 98.6957 260.724 99.2614C267.983 106.652 259.189 128.318 261.891 130.632C262.467 131.124 264.261 131.526 264.837 130.841C266.366 129.025 271.128 116.35 271.261 106.317L271.253 106.325Z" fill="white"/>
</mask>
<g mask="url(#mask2_1015_60434)">
<path d="M213.316 76.0023C213.316 76.0023 222.76 75.6376 226.91 84.1C231.059 92.5623 230.048 102.446 221.254 111.809C212.46 121.172 185.34 154.471 185.34 154.471L162.067 145.004L208.044 85.1643L213.316 76.0097V76.0023Z" fill="#F9F9F9"/>
<path d="M217.729 50.5711C217.729 50.5711 223.481 50.653 223.223 55.0367C222.964 59.4205 221.311 70.4803 230.909 72.088C238.618 73.383 238.514 69.5723 242.191 70.7185C247.353 72.3336 250.816 56.9793 250.461 56.3764L260.983 55.0888C260.983 55.0888 239.371 36.616 235.059 40.2927C230.747 43.9694 217.729 50.5711 217.729 50.5711Z" fill="#C2C3C4"/>
<path d="M258.763 97.4626C258.763 97.4626 273.299 93.3957 263.533 127.76C253.767 162.131 256.275 141.033 256.275 141.033C256.275 141.033 248.024 128.223 247.471 127.795C246.918 127.367 254.678 102.832 254.678 102.832L258.764 97.47L258.763 97.4626Z" fill="#85888B"/>
<path d="M242.959 118.928C242.615 117.914 260.033 96.5735 258.198 96.7137C256.363 96.8538 251.231 104.759 246.312 104.777C241.392 104.803 234.659 104.388 228.531 110.176C222.404 115.964 188.292 155.618 188.292 155.618L202.976 167.689L242.959 118.92L242.959 118.928Z" fill="#9A9C9E"/>
</g>
<path d="M264.83 130.848C264.261 131.525 262.46 131.131 261.884 130.64C259.181 128.325 267.983 106.652 260.717 99.2686C260.171 98.7104 259.255 98.7476 258.753 99.343L252.255 107.061C250.439 109.22 247.692 110.328 244.894 110.083C242.782 109.904 240.146 109.912 237.547 110.522C234.948 111.147 232.393 112.39 230.466 114.682L194.375 157.56L183.366 148.145L219.487 105.23C225.608 97.914 220.846 87.5687 220.846 87.5687C218.889 81.5029 215.197 77.2233 209.349 77.4912L205.606 74.2834C205 73.7624 204.919 72.847 205.436 72.2367C205.436 72.2367 207.156 68.292 210.7 64.0795C214.237 59.8743 217.826 57.5224 217.826 57.5224C218.342 56.9121 219.251 56.8303 219.863 57.3513L223.614 60.5591C223.961 63.4915 225.283 66.1858 227.373 67.972C228.244 68.7163 229.226 69.334 230.297 69.788C232.467 70.7109 234.911 70.3909 237.008 69.3117C239.703 67.9199 243.07 68.2027 245.529 70.3016L263.988 86.0876C268.994 90.3671 271.386 96.0162 271.261 106.332C271.135 116.365 266.373 129.032 264.837 130.855L264.83 130.848Z" stroke="#474747" stroke-width="4" stroke-linecap="round" stroke-linejoin="round"/>
<path d="M221.994 65.0176C222.094 64.7531 220.21 67.5183 218.065 69.9686C216.419 71.8457 214 74 214 74C214 74 215.578 74.0126 218.608 70.397C219.98 68.7529 221.058 66.7309 222 65.0176H221.994Z" fill="#9A9C9E"/>
<path d="M144.3 226.249C143.509 227.187 142.38 227.775 141.154 227.864C138.799 228.05 135.764 226.234 130.721 221.925C125.552 217.504 123.352 214.683 123.197 212.339C123.116 211.17 123.529 210.024 124.275 209.138L171.102 153.504L191.112 170.622L144.285 226.256L144.3 226.249Z" fill="#AA7C5C"/>
<path d="M194.368 157.538C194.265 156.831 187.442 150.765 189.288 152.343C191.134 153.921 184.083 148.13 183.374 148.138C181.897 148.16 171.265 152.73 171.117 153.504C171.043 153.891 179.328 161.296 180.738 162.502C182.148 163.708 190.743 170.741 191.112 170.607C191.85 170.332 194.589 159.012 194.368 157.545V157.538Z" fill="#5E4C3F"/>
<mask id="mask3_1015_60434" style="mask-type:luminance" maskUnits="userSpaceOnUse" x="171" y="148" width="24" height="23">
<path d="M194.368 157.538C194.265 156.831 187.442 150.765 189.288 152.343C191.134 153.921 184.083 148.13 183.374 148.138C181.897 148.16 171.265 152.73 171.117 153.504C171.043 153.891 179.328 161.296 180.738 162.502C182.148 163.708 190.743 170.741 191.112 170.607C191.85 170.332 194.589 159.012 194.368 157.545V157.538Z" fill="white"/>
</mask>
<g mask="url(#mask3_1015_60434)">
<path d="M189.251 150.549C189.251 150.549 186.607 150.795 182.93 153.4C179.253 156.005 177.976 158.193 177.976 158.193L158.653 148.726L169.293 125.586L186.851 132.769L189.251 150.542V150.549Z" fill="#796C62"/>
<path d="M197.44 155.715L192.286 155.142C192.286 155.142 192.16 162.168 188.254 166.626C184.356 171.076 191.606 175.133 191.606 175.133L197.469 166.536L197.44 155.715Z" fill="#493A30"/>
</g>
<mask id="mask4_1015_60434" style="mask-type:luminance" maskUnits="userSpaceOnUse" x="123" y="153" width="69" height="75">
<path d="M144.3 226.249C143.509 227.187 142.38 227.775 141.154 227.864C138.799 228.05 135.764 226.234 130.721 221.925C125.552 217.504 123.352 214.683 123.197 212.339C123.116 211.17 123.529 210.024 124.275 209.138L171.102 153.504L191.112 170.622L144.285 226.256L144.3 226.249Z" fill="white"/>
</mask>
<g mask="url(#mask4_1015_60434)">
<path d="M177.776 158.677C167.321 166.648 128.756 214.639 128.38 218.159C128.003 221.679 113 198.25 113 198.25C113 198.25 145.606 159.51 146.359 158.617C147.112 157.724 167.616 148.741 167.616 148.741C167.616 148.741 188.232 150.698 177.776 158.669V158.677Z" fill="#E2AB85"/>
<path d="M192.245 170.796L187.365 168.809C187.365 168.809 142.221 225.336 137.968 228.76C133.715 232.184 147.213 238.049 147.213 238.049L189.019 197.97L192.245 170.796Z" fill="#6A472F"/>
</g>
<path d="M144.3 226.249C143.509 227.187 142.38 227.775 141.154 227.864C138.799 228.05 135.764 226.234 130.721 221.925C125.552 217.504 123.352 214.683 123.197 212.339C123.116 211.17 123.529 210.024 124.275 209.138L171.102 153.504L191.112 170.622L144.285 226.256L144.3 226.249Z" stroke="#3A312C" stroke-width="4" stroke-miterlimit="10" stroke-linejoin="round"/>
<path d="M194.368 157.538C194.265 156.831 191.872 154.546 189.288 152.343C186.704 150.132 184.083 148.13 183.374 148.138C181.897 148.16 171.265 152.73 171.117 153.504C171.043 153.891 179.328 161.296 180.738 162.502C182.148 163.708 190.743 170.741 191.112 170.607C191.85 170.332 194.589 159.012 194.368 157.545V157.538Z" stroke="#3A312C" stroke-width="4" stroke-miterlimit="10"/>
<path d="M29.9029 288.44V290.848H35.1109V305.296H38.1069V280.32H35.1109V288.44H29.9029ZM17.1909 297.708L19.0669 300.116C21.8669 298.688 23.8829 295.832 24.9749 292.416C26.0669 295.664 28.0269 298.324 30.8269 299.696L32.5909 297.288C28.6989 295.524 26.4869 290.96 26.4869 286.34V282.336H23.4629V286.34C23.4629 291.016 21.1389 295.832 17.1909 297.708ZM59.3875 280.32V305.296H62.4115V280.32H59.3875ZM43.1755 299.388H55.2155V282.364H52.2195V288.636H46.1715V282.364H43.1755V299.388ZM46.1715 296.952V290.988H52.2195V296.952H46.1715ZM75.9362 281.888V283.736C75.9362 287.6 72.1282 291.464 67.0882 292.36L68.3762 294.852C72.4922 294.012 75.9082 291.464 77.5322 288.104C79.1282 291.464 82.5442 293.984 86.6882 294.852L88.0042 292.36C82.9082 291.492 79.1282 287.628 79.1282 283.736V281.888H75.9362ZM66.3602 302.048H88.9002V299.584H66.3602V302.048ZM99.33 281.496V283.904H106.47C106.19 286.284 103.166 288.552 98.434 289.112L99.554 291.52C103.95 290.96 107.226 288.972 108.542 286.284C109.858 288.972 113.162 290.932 117.53 291.52L118.65 289.112C113.918 288.552 110.894 286.284 110.614 283.904H117.754V281.496H99.33ZM97.258 295.356H107.282V299.92H110.306V295.356H119.798V292.92H97.258V295.356ZM100.002 304.792H117.334V302.356H102.998V297.652H100.002V304.792ZM139.259 280.32V305.296H142.283V280.32H139.259ZM123.047 299.388H135.087V282.364H132.091V288.636H126.043V282.364H123.047V299.388ZM126.043 296.952V290.988H132.091V296.952H126.043ZM152.684 291.828V294.208H162.4V296.42C157.948 296.7 155.316 298.24 155.316 300.816C155.316 303.616 158.536 305.212 163.912 305.212C169.26 305.212 172.48 303.616 172.48 300.816C172.48 298.24 169.848 296.7 165.424 296.42V294.208H175.168V291.828H152.684ZM153.776 288.244L154.84 290.624C159.292 290.148 162.596 288.356 163.94 285.836C165.256 288.384 168.588 290.148 173.04 290.624L174.104 288.244C169.512 287.824 166.544 285.948 166.068 283.848H173.152V281.468H154.728V283.848H161.812C161.336 285.948 158.34 287.824 153.776 288.244ZM158.34 300.816C158.34 299.36 160.3 298.66 163.912 298.66C167.468 298.66 169.428 299.36 169.428 300.816C169.428 302.216 167.468 302.944 163.912 302.944C160.3 302.944 158.34 302.216 158.34 300.816ZM194.685 280.376V298.352H197.709V280.376H194.685ZM177.605 288.244C177.605 291.856 180.489 294.46 184.241 294.46C188.021 294.46 190.877 291.856 190.877 288.244C190.877 284.576 188.021 282 184.241 282C180.489 282 177.605 284.576 177.605 288.244ZM180.545 288.244C180.545 286.004 182.141 284.604 184.241 284.604C186.341 284.604 187.965 286.004 187.965 288.244C187.965 290.428 186.341 291.828 184.241 291.828C182.141 291.828 180.545 290.428 180.545 288.244ZM181.413 304.764H198.409V302.328H184.409V296.56H181.413V304.764ZM226.647 280.348V305.24H229.531V280.348H226.647ZM207.803 296.896L208.139 299.388C211.303 299.388 216.371 299.304 220.263 298.492L220.067 296.308C219.367 296.42 218.611 296.476 217.827 296.56V285.724H219.619V283.288H208.279V285.724H210.043V296.896H207.803ZM212.759 296.84V285.724H215.111V296.728C214.327 296.784 213.543 296.812 212.759 296.84ZM218.947 292.248H221.747V304.008H224.575V280.88H221.747V289.588H218.947V292.248ZM250.056 280.32V305.296H253.08V280.32H250.056ZM233.34 290.932C233.34 296.336 236.028 299.78 239.78 299.78C243.532 299.78 246.22 296.336 246.22 290.932C246.22 285.556 243.532 282.14 239.78 282.14C236.028 282.14 233.34 285.556 233.34 290.932ZM236.252 290.932C236.252 287.124 237.68 284.884 239.78 284.884C241.88 284.884 243.336 287.124 243.336 290.932C243.336 294.796 241.88 297.036 239.78 297.036C237.68 297.036 236.252 294.796 236.252 290.932ZM257.784 282.784V285.304H263.244V287.46C263.244 291.688 260.808 296.336 256.888 298.156L258.596 300.508C261.508 299.136 263.692 296.224 264.812 292.808C265.96 295.972 268.116 298.604 271 299.892L272.68 297.512C268.732 295.86 266.296 291.576 266.296 287.46V285.304H271.756V282.784H257.784ZM274.5 305.24H277.524V280.348H274.5V305.24ZM299.029 280.348V293.704H302.025V280.348H299.029ZM281.949 287.236C281.949 290.68 284.749 293.06 288.585 293.06C292.393 293.06 295.221 290.68 295.221 287.236C295.221 283.848 292.393 281.468 288.585 281.468C284.749 281.468 281.949 283.848 281.949 287.236ZM284.889 287.236C284.889 285.248 286.429 283.932 288.585 283.932C290.741 283.932 292.281 285.248 292.281 287.236C292.281 289.28 290.741 290.568 288.585 290.568C286.429 290.568 284.889 289.28 284.889 287.236ZM285.729 304.932H302.025V294.88H299.057V297.484H288.697V294.88H285.729V304.932ZM288.697 302.524V299.808H299.057V302.524H288.697ZM323.585 280.348V305.24H326.581V280.348H323.585ZM307.373 298.968H309.557C313.365 298.968 317.425 298.688 321.737 297.82L321.373 295.3C317.509 296.084 313.841 296.364 310.397 296.42V282.728H307.373V298.968ZM346.798 280.32V305.296H349.822V292.304H353.602V289.812H349.822V280.32H346.798ZM331.482 299.192H333.498C337.978 299.192 341.338 299.08 345.118 298.38L344.81 295.86C341.45 296.504 338.426 296.644 334.478 296.672V285.136H343.074V282.7H331.482V299.192ZM360.631 281.916H356.879L357.411 297.596H360.155L360.631 281.916ZM357.047 301.908C357.047 302.916 357.775 303.644 358.811 303.644C359.791 303.644 360.519 302.916 360.519 301.908C360.519 300.9 359.791 300.2 358.811 300.2C357.775 300.2 357.047 300.9 357.047 301.908Z" fill="#3C3C3C"/>
</svg>
