<svg width="current" height="current" viewBox="0 0 160 32" fill="none" xmlns="http://www.w3.org/2000/svg">
<path fill-rule="evenodd" clip-rule="evenodd" d="M3.99168 1C1.78714 1 0 2.78713 0 4.99168V26.6133C0 28.8178 1.78713 30.605 3.99168 30.605H27.8161C30.0206 30.605 31.8078 28.8178 31.8078 26.6133V4.99168C31.8078 2.78714 30.0206 1 27.8161 1H3.99168ZM22.9787 4.90538C22.8817 4.73899 22.7039 4.63665 22.5115 4.63657C22.3192 4.63648 22.1412 4.73867 22.0441 4.90497L16.5093 14.3834C16.4114 14.5511 16.4106 14.7584 16.507 14.9268C16.6035 15.0953 16.7826 15.1992 16.9765 15.1992H28.0349C28.2288 15.1992 28.4078 15.0954 28.5043 14.9271C28.6008 14.7587 28.6001 14.5515 28.5023 14.3838L22.9787 4.90538ZM6.68088 4.9578C6.2707 4.55072 5.60919 4.55225 5.20089 4.96123L4.50904 5.65423C4.31154 5.85206 4.20096 6.12063 4.20182 6.40041C4.20268 6.68019 4.31491 6.94807 4.51364 7.14468L7.39589 9.99629L4.51364 12.8479C4.31386 13.0456 4.20154 13.3152 4.20182 13.5964C4.20209 13.8777 4.31494 14.1471 4.5151 14.3444L5.20695 15.0262C5.61573 15.4291 6.27173 15.4284 6.67972 15.0248L9.5804 12.1549L12.4811 15.0248C12.8891 15.4284 13.5451 15.4291 13.9539 15.0262L14.6457 14.3444C14.8459 14.1471 14.9587 13.8777 14.959 13.5964C14.9593 13.3152 14.8469 13.0456 14.6472 12.8479L11.7649 9.99629L14.6472 7.14468C14.8459 6.94807 14.9581 6.68019 14.959 6.40041C14.9598 6.12063 14.8493 5.85206 14.6518 5.65423L13.9599 4.96123C13.5516 4.55225 12.8901 4.55072 12.4799 4.9578L9.5804 7.83541L6.68088 4.9578ZM17.1993 16.728C16.9435 16.728 16.7362 16.9357 16.7362 17.1919V26.458C16.7362 26.7141 16.9435 26.9218 17.1993 26.9218H27.8114C28.0672 26.9218 28.2745 26.7141 28.2745 26.458V17.1919C28.2745 16.9357 28.0672 16.728 27.8114 16.728H17.1993ZM9.24334 16.1021C6.17731 16.1021 3.69179 18.5917 3.69179 21.6628C3.69179 24.734 6.17731 27.2236 9.24334 27.2236H9.36609C12.4321 27.2236 14.9176 24.734 14.9176 21.6628C14.9176 18.5917 12.4321 16.1021 9.36609 16.1021H9.24334Z" fill="#1C6EE9"/>
<path d="M59.4596 24.4716V27.0725H37.7393V24.4716H47.2888V17.7947H49.8603V24.4716H59.4596ZM43.806 17.157C42.1637 18.3245 40.2025 18.9576 38.1887 18.9701V16.3442C39.8018 16.3182 41.3623 15.7651 42.6326 14.7689C44.1345 13.6097 45.3728 12.1433 46.2652 10.4676C47.2945 8.60419 47.9994 6.57877 48.3498 4.47828L50.9463 4.97846C50.6503 6.69859 50.1517 8.37748 49.4608 9.97992L58.9853 16.8194L57.6122 19.0326L48.3498 12.1931C47.2163 14.161 45.6652 15.8555 43.806 17.157Z" fill="#010A1A"/>
<path fill-rule="evenodd" clip-rule="evenodd" d="M48.1128 4.13691C48.2047 4.07294 48.3184 4.04881 48.4282 4.06997L51.0247 4.57014C51.2467 4.61292 51.3938 4.82586 51.3554 5.04908C51.0728 6.69135 50.6089 8.29673 49.9724 9.8357L59.2272 16.4815C59.4049 16.6091 59.4533 16.8529 59.3379 17.0389L57.9647 19.252C57.9036 19.3506 57.8042 19.419 57.6905 19.4409C57.5767 19.4628 57.4591 19.4361 57.3658 19.3672L48.4718 12.7998C47.3328 14.6504 45.8267 16.2495 44.0451 17.497C42.3335 18.7133 40.2898 19.3728 38.1913 19.3859C38.0808 19.3866 37.9745 19.3431 37.8961 19.2651C37.8177 19.187 37.7736 19.0809 37.7736 18.9701V16.3442C37.7736 16.1172 37.9554 15.9322 38.182 15.9285C39.7047 15.9039 41.1777 15.3818 42.3767 14.4415L42.3793 14.4396C43.8345 13.3163 45.0343 11.8956 45.8989 10.2719L45.902 10.2663C46.9084 8.4442 47.5978 6.46368 47.9404 4.40976C47.9588 4.29925 48.021 4.20087 48.1128 4.13691ZM48.6845 4.96618C48.3058 6.96234 47.6126 8.88647 46.6299 10.6661C45.7102 12.3923 44.4344 13.9029 42.8872 15.0974C41.6534 16.0645 40.1606 16.6359 38.6038 16.7427V18.5424C40.3849 18.4519 42.1067 17.8551 43.5658 16.8179L43.5682 16.8162C45.3776 15.5496 46.8871 13.9005 47.9903 11.9853C48.0493 11.8828 48.1492 11.8103 48.2649 11.7861C48.3805 11.7619 48.501 11.7882 48.5961 11.8584L57.4968 18.4308L58.4276 16.9305L49.2189 10.3179C49.0603 10.2039 49.0023 9.99461 49.0797 9.81507C49.7038 8.36764 50.1679 6.85664 50.4643 5.30903L48.6845 4.96618ZM46.8737 17.7947C46.8737 17.5651 47.0595 17.3789 47.2888 17.3789H49.8603C50.0895 17.3789 50.2754 17.5651 50.2754 17.7947V24.0558H59.4596C59.6889 24.0558 59.8747 24.242 59.8747 24.4716V27.0725C59.8747 27.3021 59.6889 27.4883 59.4596 27.4883H37.7393C37.5101 27.4883 37.3242 27.3021 37.3242 27.0725V24.4716C37.3242 24.242 37.5101 24.0558 37.7393 24.0558H46.8737V17.7947ZM47.7039 18.2105V24.4716C47.7039 24.7013 47.518 24.8874 47.2888 24.8874H38.1544V26.6567H59.0445V24.8874H49.8603C49.631 24.8874 49.4452 24.7013 49.4452 24.4716V18.2105H47.7039Z" fill="#010A1A"/>
<path d="M65.8257 15.1191C64.5529 15.9955 63.0969 16.5688 61.569 16.7947V14.294C62.8888 14.0401 64.1144 13.4305 65.1141 12.5309C66.1507 11.5863 66.954 10.4135 67.4609 9.10492C68.0188 7.67061 68.2984 6.1429 68.2848 4.60364L70.7814 4.76619C70.7966 6.41436 70.5219 8.05233 69.97 9.6051L76.8481 14.4565L75.5998 16.4945L68.9714 11.7807C68.1801 13.1113 67.1061 14.251 65.8257 15.1191ZM63.0919 18.6327H81.5292V27.9103H63.0919V18.6327ZM65.5885 25.5972H79.0076V20.9834H65.6135L65.5885 25.5972ZM81.5042 4.34096V17.2947H79.0076V4.34096H81.5042Z" fill="#010A1A"/>
<path fill-rule="evenodd" clip-rule="evenodd" d="M78.5925 4.34096C78.5925 4.11132 78.7784 3.92516 79.0076 3.92516H81.5042C81.7335 3.92516 81.9193 4.11132 81.9193 4.34096V17.2947C81.9193 17.5244 81.7335 17.7105 81.5042 17.7105H79.0076C78.7784 17.7105 78.5925 17.5244 78.5925 17.2947V4.34096ZM79.4228 4.75676V16.8789H81.0891V4.75676H79.4228ZM67.9996 4.3015C68.0835 4.22208 68.1966 4.18121 68.3117 4.18871L70.8083 4.35127C71.0252 4.36539 71.1945 4.54467 71.1965 4.76236C71.2111 6.35367 70.9634 7.93575 70.4639 9.44491L77.0871 14.1166C77.2662 14.2429 77.3165 14.4869 77.2019 14.674L75.9536 16.7119C75.8935 16.81 75.7955 16.8788 75.6829 16.9019C75.5703 16.9249 75.4532 16.9002 75.3595 16.8335L69.0903 12.3752C68.2957 13.5946 67.2658 14.6445 66.0596 15.4626C64.735 16.3745 63.2197 16.9709 61.6296 17.206C61.5102 17.2237 61.3891 17.1884 61.2977 17.1095C61.2064 17.0305 61.1539 16.9156 61.1539 16.7947V14.294C61.1539 14.0946 61.2952 13.9232 61.4907 13.8856C62.7359 13.6461 63.8924 13.0711 64.8358 12.2224C65.8243 11.3213 66.5904 10.2027 67.0739 8.95451L67.0741 8.95398C67.6129 7.56894 67.8829 6.09371 67.8697 4.60733C67.8687 4.49173 67.9157 4.38092 67.9996 4.3015ZM68.6959 5.04708C68.6573 6.48725 68.3707 7.91109 67.8478 9.25558C67.3177 10.6241 66.4775 11.8506 65.3935 12.8385L65.3916 12.8402C64.4213 13.7134 63.2494 14.3278 61.9841 14.6298V16.3009C63.2754 16.0436 64.5028 15.5255 65.5905 14.7765L65.593 14.7748C66.823 13.9408 67.8546 12.846 68.6147 11.5679C68.674 11.4682 68.7722 11.3979 68.8856 11.3739C68.999 11.3499 69.1172 11.3745 69.2117 11.4417L75.4781 15.898L76.2905 14.5718L69.731 9.94507C69.5786 9.83758 69.5164 9.64152 69.5789 9.46564C70.0714 8.08005 70.3364 6.62454 70.3644 5.15572L68.6959 5.04708ZM62.6768 18.6327C62.6768 18.4031 62.8626 18.2169 63.0919 18.2169H81.5292C81.7585 18.2169 81.9443 18.4031 81.9443 18.6327V27.9103C81.9443 28.14 81.7585 28.3261 81.5292 28.3261H63.0919C62.8626 28.3261 62.6768 28.14 62.6768 27.9103V18.6327ZM63.507 19.0485V27.4945H81.1141V19.0485H63.507ZM65.1983 20.9811C65.1996 20.7524 65.3851 20.5676 65.6135 20.5676H79.0076C79.2369 20.5676 79.4228 20.7538 79.4228 20.9834V25.5972C79.4228 25.8268 79.2369 26.013 79.0076 26.013H65.5885C65.478 26.013 65.3721 25.9689 65.2942 25.8904C65.2162 25.8119 65.1728 25.7056 65.1734 25.5949L65.1983 20.9811ZM66.0263 21.3992L66.0058 25.1814H78.5925V21.3992H66.0263Z" fill="#010A1A"/>
<path d="M99.4298 8.89214H84.6625V6.62906H90.7667V3.95325H93.2633V6.62906H99.3799L99.4298 8.89214ZM88.7444 19.4328C87.8314 19.1055 87.0333 18.5188 86.4476 17.7447C85.8953 16.9809 85.598 16.062 85.598 15.1189C85.598 14.1759 85.8953 13.257 86.4476 12.4932C87.0333 11.7191 87.8314 11.1326 88.7444 10.8052C89.7965 10.4057 90.915 10.2106 92.0399 10.2301C93.161 10.2091 94.2756 10.4043 95.323 10.8052C96.2308 11.136 97.0269 11.7167 97.6198 12.4807C98.1636 13.2526 98.4555 14.1742 98.4555 15.1189C98.4555 16.0637 98.1636 16.9852 97.6198 17.7572C97.0269 18.5211 96.2308 19.102 95.323 19.4328C94.2756 19.8337 93.161 20.0289 92.0399 20.0079C90.915 20.0275 89.7965 19.8323 88.7444 19.4328ZM88.7444 25.447H104.972V27.9477H86.2479V21.4083H88.7444V25.447ZM89.1064 13.1309C88.7705 13.3423 88.4936 13.6355 88.3015 13.9832C88.1094 14.3309 88.0084 14.7216 88.008 15.1189C88.0039 15.5189 88.1028 15.9131 88.2952 16.2635C88.4877 16.614 88.7671 16.9088 89.1064 17.1195C89.9925 17.619 90.992 17.8816 92.0087 17.8816C93.0255 17.8816 94.025 17.619 94.911 17.1195C95.2473 16.9064 95.5235 16.6108 95.7136 16.2606C95.9037 15.9105 96.0012 15.5175 95.997 15.1189C95.9957 14.7232 95.8956 14.3341 95.7059 13.9869C95.5163 13.6397 95.243 13.3454 94.911 13.1309C94.0278 12.623 93.0272 12.3558 92.0087 12.3558C90.9903 12.3558 89.9897 12.623 89.1064 13.1309ZM107.431 10.9052V13.556H104.373V22.3085H101.877V4.4284H104.373V10.9678L107.431 10.9052Z" fill="#010A1A"/>
<path fill-rule="evenodd" clip-rule="evenodd" d="M90.3516 3.95325C90.3516 3.72361 90.5374 3.53745 90.7667 3.53745H93.2633C93.4925 3.53745 93.6784 3.72361 93.6784 3.95325V6.21326H99.3799C99.6056 6.21326 99.7899 6.39386 99.7949 6.61987L99.8449 8.88295C99.8473 8.99479 99.8047 9.10291 99.7266 9.18289C99.6485 9.26286 99.5415 9.30794 99.4298 9.30794H84.6625C84.4333 9.30794 84.2474 9.12178 84.2474 8.89214V6.62906C84.2474 6.39942 84.4333 6.21326 84.6625 6.21326H90.3516V3.95325ZM91.1818 4.36905V6.62906C91.1818 6.8587 90.9959 7.04486 90.7667 7.04486H85.0776V8.47634H99.0055L98.9739 7.04486H93.2633C93.034 7.04486 92.8482 6.8587 92.8482 6.62906V4.36905H91.1818ZM101.461 4.4284C101.461 4.19876 101.647 4.0126 101.877 4.0126H104.373C104.602 4.0126 104.788 4.19876 104.788 4.4284V10.5434L107.423 10.4895C107.534 10.4872 107.642 10.53 107.722 10.6082C107.802 10.6864 107.847 10.7935 107.847 10.9052V13.556C107.847 13.7856 107.661 13.9718 107.431 13.9718H104.788V22.3085C104.788 22.5382 104.602 22.7243 104.373 22.7243H101.877C101.647 22.7243 101.461 22.5382 101.461 22.3085V4.4284ZM102.292 4.8442V21.8927H103.958V13.556C103.958 13.3263 104.144 13.1402 104.373 13.1402H107.016V11.3296L104.382 11.3835C104.27 11.3858 104.162 11.343 104.083 11.2648C104.003 11.1866 103.958 11.0795 103.958 10.9678V4.8442H102.292ZM95.1748 11.1936C94.1772 10.8118 93.1155 10.6258 92.0477 10.6458C92.0427 10.6459 92.0377 10.6459 92.0327 10.6459C90.9604 10.6272 89.8944 10.8132 88.8916 11.194L88.8843 11.1967C88.0486 11.4963 87.3179 12.0328 86.7812 12.7407C86.2819 13.4328 86.0131 14.265 86.0131 15.1189C86.0131 15.9729 86.2819 16.805 86.7812 17.4971C87.318 18.2051 88.0487 18.7417 88.8843 19.0413L88.8916 19.044C89.8944 19.4248 90.9604 19.6108 92.0327 19.5922C92.0352 19.5921 92.0377 19.5921 92.0402 19.5921C92.0427 19.5921 92.0452 19.5921 92.0477 19.5922C93.1155 19.6122 94.1772 19.4263 95.1748 19.0444L95.1811 19.042C96.0124 18.7391 96.7419 18.208 97.2862 17.5096C97.777 16.8094 98.0404 15.9746 98.0404 15.1189C98.0404 14.2632 97.777 13.4284 97.2862 12.7282C96.7419 12.0299 96.0124 11.4989 95.1811 11.196L95.1748 11.1936ZM95.4681 10.4156C94.3742 9.99736 93.2103 9.79324 92.0397 9.81425C90.8658 9.7948 89.6989 9.99864 88.6009 10.4151C87.6135 10.7698 86.7504 11.4046 86.1168 12.242L86.1114 12.2493C85.5078 13.084 85.1829 14.0883 85.1829 15.1189C85.1829 16.1496 85.5078 17.1539 86.1114 17.9886L86.1168 17.9958C86.7504 18.8332 87.6134 19.4681 88.6008 19.8229C89.6989 20.2394 90.8658 20.4432 92.0397 20.4238C93.2103 20.4448 94.3742 20.2407 95.4681 19.8224C96.448 19.4646 97.3074 18.8372 97.9476 18.0124C97.9495 18.0099 97.9514 18.0073 97.9533 18.0048C97.9552 18.0022 97.9571 17.9996 97.959 17.9969C98.5522 17.1548 98.8706 16.1495 98.8706 15.1189C98.8706 14.0884 98.5522 13.0831 97.959 12.241C97.9553 12.2357 97.9515 12.2306 97.9476 12.2255C97.3074 11.4006 96.448 10.7734 95.4681 10.4156ZM88.8998 12.7703C89.8459 12.2263 90.9178 11.94 92.0087 11.94C93.0997 11.94 94.1716 12.2263 95.1177 12.7703C95.1239 12.7739 95.13 12.7776 95.1361 12.7815C95.5262 13.0336 95.8473 13.3793 96.0701 13.7873C96.2927 14.1948 96.4103 14.6514 96.4121 15.1159C96.4168 15.5849 96.3019 16.0473 96.0783 16.4593C95.8544 16.8717 95.529 17.2199 95.133 17.4709C95.127 17.4747 95.1208 17.4783 95.1146 17.4818C94.1665 18.0164 93.0968 18.2974 92.0087 18.2974C90.9207 18.2974 89.851 18.0164 88.9028 17.4818C88.8977 17.479 88.8927 17.476 88.8878 17.4729C88.4877 17.2245 88.1583 16.877 87.9315 16.4639C87.705 16.0514 87.5884 15.5874 87.5929 15.1166C87.5937 14.6496 87.7125 14.1904 87.9383 13.7818C88.1643 13.3727 88.4903 13.0276 88.8856 12.7788C88.8883 12.7772 88.8909 12.7755 88.8935 12.7739C88.8956 12.7727 88.8977 12.7715 88.8998 12.7703ZM89.3205 13.4873C89.047 13.6609 88.8215 13.9007 88.6647 14.1845C88.5065 14.4707 88.4234 14.7923 88.4231 15.1194V15.1232C88.4197 15.4516 88.5009 15.7754 88.659 16.0631C88.8156 16.3484 89.0425 16.5888 89.3179 16.7616C90.1398 17.2232 91.0664 17.4658 92.0087 17.4658C92.9504 17.4658 93.8763 17.2235 94.6978 16.7625C94.9703 16.5878 95.1943 16.3468 95.3489 16.062C95.5052 15.7741 95.5854 15.451 95.5819 15.1233L95.5819 15.1204C95.5808 14.7939 95.4983 14.4729 95.3418 14.1864C95.187 13.9031 94.9647 13.6625 94.6947 13.486C93.8768 13.0179 92.951 12.7716 92.0087 12.7716C91.0657 12.7716 90.139 13.0183 89.3205 13.4873ZM85.8328 21.4083C85.8328 21.1787 86.0186 20.9925 86.2479 20.9925H88.7444C88.9737 20.9925 89.1596 21.1787 89.1596 21.4083V25.0312H104.972C105.202 25.0312 105.387 25.2173 105.387 25.447V27.9477C105.387 28.1773 105.202 28.3635 104.972 28.3635H86.2479C86.0186 28.3635 85.8328 28.1773 85.8328 27.9477V21.4083ZM86.663 21.8241V27.5319H104.557V25.8628H88.7444C88.5152 25.8628 88.3293 25.6766 88.3293 25.447V21.8241H86.663Z" fill="#010A1A"/>
<path d="M136.093 16.0945V18.3077H114.372V16.0945H123.947V13.3062H126.443V16.0945H136.093ZM124.758 10.9305C123.523 12.0054 122.077 12.8103 120.514 13.2937C118.808 13.8535 117.029 14.1569 115.234 14.1939V12.0183C117.11 11.9722 118.96 11.5736 120.689 10.8431C122.149 10.3379 123.36 9.29046 124.072 7.91709H115.646V5.76649H123.947V3.4158H126.518V5.76649H134.795V7.91709H126.743C126.62 8.35582 126.44 8.77628 126.206 9.16745L135.294 12.1308L134.632 14.1939L124.758 10.9305ZM132.173 21.1711C133.933 21.7838 134.819 22.8215 134.819 24.2469C134.819 25.6724 133.933 26.7476 132.173 27.3353C129.923 28.0321 127.574 28.3491 125.22 28.2731C122.866 28.3507 120.515 28.0294 118.267 27.3228C116.494 26.6851 115.621 25.6724 115.621 24.2469C115.621 22.8215 116.494 21.7463 118.255 21.1711C122.81 19.921 127.618 19.921 132.173 21.1711ZM130.201 25.6849C131.511 25.3973 132.161 24.9221 132.161 24.2469C132.161 23.5717 131.511 23.0966 130.188 22.7965C126.887 22.1918 123.503 22.1918 120.202 22.7965C118.954 23.0966 118.23 23.5842 118.23 24.2469C118.23 24.9096 118.879 25.3973 120.189 25.6849C123.493 26.2692 126.873 26.2692 130.176 25.6849H130.201Z" fill="#010A1A"/>
<path fill-rule="evenodd" clip-rule="evenodd" d="M123.532 3.4158C123.532 3.18616 123.718 3 123.947 3H126.518C126.748 3 126.933 3.18616 126.933 3.4158V5.35069H134.795C135.024 5.35069 135.21 5.53685 135.21 5.76649V7.91709C135.21 8.14673 135.024 8.33289 134.795 8.33289H127.048C126.979 8.53506 126.898 8.73302 126.806 8.92579L135.422 11.7354C135.64 11.8063 135.759 12.0399 135.689 12.258L135.027 14.3211C134.994 14.4266 134.919 14.5143 134.82 14.5645C134.722 14.6148 134.607 14.6235 134.502 14.5888L124.85 11.3986C123.612 12.4337 122.182 13.2128 120.64 13.69C118.896 14.2619 117.077 14.5718 115.242 14.6097C115.131 14.612 115.023 14.5692 114.943 14.491C114.864 14.4128 114.819 14.3057 114.819 14.1939V12.0183C114.819 11.7927 114.998 11.6082 115.224 11.6026C117.047 11.5578 118.847 11.1702 120.527 10.4599C120.536 10.4564 120.545 10.453 120.553 10.45C121.689 10.0573 122.662 9.31247 123.338 8.33289H115.646C115.416 8.33289 115.231 8.14673 115.231 7.91709V5.76649C115.231 5.53685 115.416 5.35069 115.646 5.35069H123.532V3.4158ZM124.362 3.8316V5.76649C124.362 5.99613 124.176 6.18229 123.947 6.18229H116.061V7.50129H124.072C124.217 7.50129 124.351 7.57706 124.426 7.70118C124.502 7.82529 124.507 7.97976 124.44 8.10866C123.681 9.57244 122.392 10.6898 120.837 11.2315C119.189 11.9264 117.433 12.3277 115.649 12.4187V13.7644C117.259 13.6926 118.852 13.4015 120.385 12.8986L120.392 12.8964C121.9 12.4301 123.294 11.6536 124.486 10.6166C124.596 10.5205 124.749 10.4897 124.888 10.5357L134.365 13.6678L134.772 12.398L126.078 9.56283C125.958 9.52367 125.862 9.43188 125.818 9.31344C125.773 9.19499 125.785 9.06277 125.85 8.95418C126.064 8.59458 126.23 8.20806 126.343 7.80473C126.394 7.6253 126.557 7.50129 126.743 7.50129H134.379V6.18229H126.518C126.289 6.18229 126.103 5.99613 126.103 5.76649V3.8316H124.362ZM123.532 13.3062C123.532 13.0766 123.718 12.8904 123.947 12.8904H126.443C126.673 12.8904 126.859 13.0766 126.859 13.3062V15.6787H136.093C136.322 15.6787 136.508 15.8649 136.508 16.0945V18.3077C136.508 18.5373 136.322 18.7235 136.093 18.7235H114.372C114.143 18.7235 113.957 18.5373 113.957 18.3077V16.0945C113.957 15.8649 114.143 15.6787 114.372 15.6787H123.532V13.3062ZM124.362 13.722V16.0945C124.362 16.3242 124.176 16.5103 123.947 16.5103H114.788V17.8919H135.678V16.5103H126.443C126.214 16.5103 126.028 16.3242 126.028 16.0945V13.722H124.362ZM118.374 21.5695C117.55 21.8402 116.968 22.2162 116.594 22.6588C116.224 23.0975 116.036 23.6256 116.036 24.2469C116.036 24.8663 116.223 25.3778 116.594 25.8087C116.97 26.2465 117.559 26.6252 118.399 26.9286C120.6 27.6194 122.901 27.9335 125.206 27.8575C125.215 27.8572 125.224 27.8572 125.233 27.8575C127.539 27.9319 129.842 27.6217 132.046 26.9394C132.874 26.6623 133.461 26.2822 133.84 25.836C134.214 25.3949 134.404 24.8666 134.404 24.2469C134.404 23.6282 134.215 23.1101 133.842 22.6754C133.464 22.2358 132.878 21.8585 132.05 21.5684C127.573 20.3426 122.85 20.343 118.374 21.5695ZM118.145 20.7701C122.772 19.5003 127.655 19.5003 132.283 20.7701C132.292 20.7725 132.301 20.7753 132.309 20.7783C133.234 21.1003 133.967 21.5466 134.471 22.1331C134.981 22.7268 135.235 23.4402 135.235 24.2469C135.235 25.0526 134.982 25.7747 134.473 26.3745C133.969 26.9685 133.234 27.4193 132.304 27.7298L132.296 27.7325C130.006 28.4417 127.615 28.7649 125.22 28.6891C122.823 28.7666 120.431 28.4388 118.143 27.7195C118.137 27.7178 118.132 27.716 118.127 27.7141C117.199 27.3804 116.467 26.9348 115.965 26.3518C115.456 25.7605 115.206 25.0529 115.206 24.2469C115.206 23.4428 115.454 22.7207 115.961 22.1215C116.462 21.5281 117.195 21.08 118.126 20.7758C118.132 20.7737 118.139 20.7718 118.145 20.7701ZM120.127 22.3874C123.478 21.7738 126.912 21.7738 130.263 22.3874C130.266 22.388 130.269 22.3886 130.272 22.3893C130.275 22.3898 130.277 22.3903 130.28 22.3909C130.964 22.5461 131.521 22.7558 131.916 23.0457C132.326 23.347 132.576 23.7494 132.576 24.2469C132.576 24.7441 132.327 25.1468 131.917 25.4468C131.524 25.7356 130.969 25.9421 130.29 26.0911C130.264 26.0966 130.239 26.0997 130.213 26.1005C126.873 26.6871 123.457 26.6851 120.117 26.0944C120.114 26.0938 120.111 26.0931 120.107 26.0925C120.105 26.092 120.103 26.0915 120.101 26.0911C119.42 25.9417 118.865 25.7317 118.472 25.4413C118.065 25.1411 117.815 24.7392 117.815 24.2469C117.815 23.7393 118.1 23.3398 118.506 23.0479C118.905 22.7609 119.457 22.548 120.105 22.3922C120.112 22.3904 120.12 22.3888 120.127 22.3874ZM120.288 23.2034C119.694 23.3472 119.263 23.5272 118.99 23.7235C118.722 23.9162 118.645 24.0919 118.645 24.2469C118.645 24.4174 118.719 24.5907 118.964 24.7718C119.222 24.962 119.645 25.139 120.27 25.2769C123.523 25.8513 126.851 25.8508 130.104 25.2754C130.12 25.2726 130.136 25.2707 130.152 25.2698C130.762 25.1326 131.174 24.9612 131.427 24.7758C131.67 24.5975 131.745 24.425 131.745 24.2469C131.745 24.0692 131.67 23.8965 131.425 23.7163C131.166 23.5257 130.739 23.3485 130.105 23.2039C126.859 22.6106 123.533 22.6104 120.288 23.2034Z" fill="#010A1A"/>
<path d="M159.585 22.1337H150.011V28.7607H147.414V22.1212H137.865V19.4954H159.585V22.1337ZM158.062 16.6322H139.338V5.06633H158.062V16.6322ZM155.566 7.62949H141.885V14.0814H155.541L155.566 7.62949Z" fill="#010A1A"/>
<path fill-rule="evenodd" clip-rule="evenodd" d="M138.923 5.06633C138.923 4.83669 139.109 4.65053 139.338 4.65053H158.062C158.292 4.65053 158.477 4.83669 158.477 5.06633V16.6322C158.477 16.8619 158.292 17.048 158.062 17.048H139.338C139.109 17.048 138.923 16.8619 138.923 16.6322V5.06633ZM139.753 5.48213V16.2164H157.647V5.48213H139.753ZM141.469 7.62949C141.469 7.39985 141.655 7.21369 141.885 7.21369H155.566C155.676 7.21369 155.782 7.25772 155.86 7.33604C155.938 7.41437 155.981 7.52055 155.981 7.6311L155.956 14.083C155.955 14.312 155.769 14.4972 155.541 14.4972H141.885C141.655 14.4972 141.469 14.3111 141.469 14.0814V7.62949ZM142.3 8.04529V13.6656H155.127L155.149 8.04529H142.3ZM137.45 19.4954C137.45 19.2658 137.636 19.0796 137.865 19.0796H159.585C159.815 19.0796 160 19.2658 160 19.4954V22.1337C160 22.3633 159.815 22.5495 159.585 22.5495H150.426V28.7607C150.426 28.9903 150.24 29.1765 150.011 29.1765H147.414C147.185 29.1765 146.999 28.9903 146.999 28.7607V22.537H137.865C137.636 22.537 137.45 22.3508 137.45 22.1212V19.4954ZM138.28 19.9112V21.7054H147.414C147.644 21.7054 147.83 21.8915 147.83 22.1212V28.3449H149.596V22.1337C149.596 21.9041 149.782 21.7179 150.011 21.7179H159.17V19.9112H138.28Z" fill="#010A1A"/>
</svg>
