<svg width="24" height="25" viewBox="0 0 24 25" fill="none" xmlns="http://www.w3.org/2000/svg">
<g id="Bell_24">
<g id="Vector">
<path d="M4 19.6367V18.1367H6.1V10.4867C6.1 9.08672 6.5125 7.84089 7.3375 6.74922C8.1625 5.65755 9.25 4.97005 10.6 4.68672V3.96172C10.6 3.57839 10.7375 3.26172 11.0125 3.01172C11.2875 2.76172 11.6167 2.63672 12 2.63672C12.3833 2.63672 12.7125 2.76172 12.9875 3.01172C13.2625 3.26172 13.4 3.57839 13.4 3.96172V4.68672C14.75 4.97005 15.8417 5.65755 16.675 6.74922C17.5083 7.84089 17.925 9.08672 17.925 10.4867V18.1367H20V19.6367H4ZM12 22.6367C11.4667 22.6367 11 22.4409 10.6 22.0492C10.2 21.6576 10 21.1867 10 20.6367H14C14 21.1867 13.8042 21.6576 13.4125 22.0492C13.0208 22.4409 12.55 22.6367 12 22.6367ZM7.6 18.1367H16.425V10.4867C16.425 9.25339 16 8.20339 15.15 7.33672C14.3 6.47005 13.2583 6.03672 12.025 6.03672C10.7917 6.03672 9.74583 6.47005 8.8875 7.33672C8.02917 8.20339 7.6 9.25339 7.6 10.4867V18.1367Z" fill="#3C3C3C"/>
<path d="M7 18.6367V9.13672C7.5 7.80339 9.2 5.13672 12 5.13672C14.8 5.13672 16.5 7.80339 17 9.13672V18.6367H7Z" fill="#3C3C3C"/>
</g>
</g>
</svg>
