<svg width="115" height="115" viewBox="0 0 115 115" fill="none" xmlns="http://www.w3.org/2000/svg">
<g id="Bell_24">
<g id="Vector">
<path d="M19.502 91.1768V84.0518H29.477V47.7143C29.477 41.0643 31.4363 35.1466 35.3551 29.9611C39.2738 24.7757 44.4395 21.5101 50.852 20.1643V16.7205C50.852 14.8997 51.5051 13.3955 52.8113 12.208C54.1176 11.0205 55.6811 10.4268 57.502 10.4268C59.3228 10.4268 60.8863 11.0205 62.1926 12.208C63.4988 13.3955 64.152 14.8997 64.152 16.7205V20.1643C70.5645 21.5101 75.7499 24.7757 79.7082 29.9611C83.6665 35.1466 85.6457 41.0643 85.6457 47.7143V84.0518H95.502V91.1768H19.502ZM57.502 105.427C54.9686 105.427 52.752 104.497 50.852 102.636C48.952 100.776 48.002 98.5393 48.002 95.9268H67.002C67.002 98.5393 66.0717 100.776 64.2113 102.636C62.3509 104.497 60.1145 105.427 57.502 105.427ZM36.602 84.0518H78.5207V47.7143C78.5207 41.8559 76.502 36.8684 72.4645 32.7518C68.427 28.6351 63.479 26.5768 57.6207 26.5768C51.7624 26.5768 46.7947 28.6351 42.7176 32.7518C38.6405 36.8684 36.602 41.8559 36.602 47.7143V84.0518Z" fill="#F1F2F3"/>
<path d="M33.752 86.4268V41.3018C36.127 34.9684 44.202 22.3018 57.502 22.3018C70.802 22.3018 78.877 34.9684 81.252 41.3018V86.4268H33.752Z" fill="#F1F2F3"/>
</g>
</g>
</svg>
