<svg width="current" height="current" viewBox="0 0 24 24" fill="none" xmlns="http://www.w3.org/2000/svg">
<path d="M12 13.65L7.05005 18.6C6.81672 18.8333 6.54172 18.95 6.22505 18.95C5.90838 18.95 5.63338 18.8333 5.40005 18.6C5.16672 18.3667 5.05005 18.0917 5.05005 17.775C5.05005 17.4583 5.16672 17.1833 5.40005 16.95L10.35 12L5.40005 7.05C5.16672 6.81667 5.05005 6.54167 5.05005 6.225C5.05005 5.90834 5.16672 5.63334 5.40005 5.4C5.63338 5.16667 5.90838 5.05 6.22505 5.05C6.54172 5.05 6.81672 5.16667 7.05005 5.4L12 10.35L16.95 5.4C17.1834 5.16667 17.4584 5.05 17.775 5.05C18.0917 5.05 18.3667 5.16667 18.6 5.4C18.8334 5.63334 18.95 5.90834 18.95 6.225C18.95 6.54167 18.8334 6.81667 18.6 7.05L13.65 12L18.6 16.95C18.8334 17.1833 18.95 17.4583 18.95 17.775C18.95 18.0917 18.8334 18.3667 18.6 18.6C18.3667 18.8333 18.0917 18.95 17.775 18.95C17.4584 18.95 17.1834 18.8333 16.95 18.6L12 13.65Z" fill="current"/>
</svg>
