<svg width="16" height="17" viewBox="0 0 16 17" fill="none" xmlns="http://www.w3.org/2000/svg">
<path d="M11.6667 14.3334C11.0222 14.3334 10.4722 14.1056 10.0167 13.65C9.56111 13.1945 9.33333 12.6445 9.33333 12C9.33333 11.3556 9.56111 10.8056 10.0167 10.35C10.4722 9.89446 11.0222 9.66669 11.6667 9.66669C12.3111 9.66669 12.8611 9.89446 13.3167 10.35C13.7722 10.8056 14 11.3556 14 12C14 12.6445 13.7722 13.1945 13.3167 13.65C12.8611 14.1056 12.3111 14.3334 11.6667 14.3334ZM11.6628 13.3334C12.032 13.3334 12.3472 13.2041 12.6083 12.9456C12.8694 12.6871 13 12.3732 13 12.0039C13 11.6347 12.8708 11.3195 12.6123 11.0584C12.3538 10.7972 12.0399 10.6667 11.6706 10.6667C11.3013 10.6667 10.9861 10.7959 10.725 11.0544C10.4639 11.3129 10.3333 11.6268 10.3333 11.9961C10.3333 12.3654 10.4626 12.6806 10.7211 12.9417C10.9796 13.2028 11.2935 13.3334 11.6628 13.3334ZM2 12.5V11.5H8V12.5H2ZM4.33333 7.33335C3.68889 7.33335 3.13889 7.10558 2.68333 6.65002C2.22778 6.19446 2 5.64446 2 5.00002C2 4.35558 2.22778 3.80558 2.68333 3.35002C3.13889 2.89446 3.68889 2.66669 4.33333 2.66669C4.97778 2.66669 5.52778 2.89446 5.98333 3.35002C6.43889 3.80558 6.66667 4.35558 6.66667 5.00002C6.66667 5.64446 6.43889 6.19446 5.98333 6.65002C5.52778 7.10558 4.97778 7.33335 4.33333 7.33335ZM4.32942 6.33335C4.69869 6.33335 5.01389 6.2041 5.275 5.9456C5.53611 5.68711 5.66667 5.37323 5.66667 5.00394C5.66667 4.63466 5.53742 4.31946 5.27892 4.05835C5.02043 3.79724 4.70654 3.66669 4.33725 3.66669C3.96797 3.66669 3.65278 3.79594 3.39167 4.05444C3.13056 4.31293 3 4.62681 3 4.9961C3 5.36538 3.12925 5.68058 3.38775 5.94169C3.64624 6.2028 3.96013 6.33335 4.32942 6.33335ZM8 5.50002V4.50002H14V5.50002H8Z" fill="#3C3C3C"/>
</svg>
