<svg width="24" height="24" viewBox="0 0 24 24" fill="none" xmlns="http://www.w3.org/2000/svg">
<g clipPath="url(#clip0_5524_5629)">
<path d="M12 6.06995V3.06995L8 7.06995L12 11.0699V8.06995C15.31 8.06995 18 10.7599 18 14.0699C18 17.0399 15.83 19.4999 13 19.9799V21.9999C16.95 21.5099 20 18.1499 20 14.0699C20 9.64995 16.42 6.06995 12 6.06995Z" fill="#3C3C3C"/>
<path d="M6 14.07C6 12.42 6.67 10.92 7.76 9.82997L6.34 8.40997C4.9 9.85997 4 11.86 4 14.07C4 18.15 7.05 21.51 11 22V19.98C8.17 19.5 6 17.04 6 14.07Z" fill="#3C3C3C"/>
</g>
<defs>
<clipPath id="clip0_5524_5629">
<rect width="24" height="24" fill="white" transform="matrix(1 0 0 -1 0 24)"/>
</clipPath>
</defs>
</svg>
