<svg width="6" height="7" viewBox="0 0 6 7" fill="none" xmlns="http://www.w3.org/2000/svg">
<path id="&#235;&#175;&#184;&#235;&#130;&#169;" fill-rule="evenodd" clip-rule="evenodd" d="M2.66809 3.50707C2.67199 3.50317 2.67199 3.49683 2.66809 3.49293L1.00707 1.83191C1.00317 1.82801 1.00317 1.82168 1.00707 1.81777L1.31777 1.50707C1.32168 1.50317 1.32801 1.50317 1.33191 1.50707L2.99293 3.16809C2.99683 3.17199 3.00317 3.17199 3.00707 3.16809L4.66809 1.50707C4.67199 1.50317 4.67832 1.50317 4.68223 1.50707L4.99293 1.81777C4.99683 1.82168 4.99683 1.82801 4.99293 1.83191L3.33191 3.49293C3.32801 3.49683 3.32801 3.50317 3.33191 3.50707L4.99293 5.16809C4.99683 5.17199 4.99683 5.17832 4.99293 5.18223L4.68223 5.49293C4.67832 5.49683 4.67199 5.49683 4.66809 5.49293L3.00707 3.83191C3.00317 3.82801 2.99683 3.82801 2.99293 3.83191L1.33191 5.49293C1.32801 5.49683 1.32168 5.49683 1.31777 5.49293L1.00707 5.18223C1.00317 5.17832 1.00317 5.17199 1.00707 5.16809L2.66809 3.50707Z" fill="#ED4F1D" stroke="#ED4F1D" stroke-width="1.7"/>
</svg>
