<svg width="194" height="156" viewBox="0 0 194 156" fill="none" xmlns="http://www.w3.org/2000/svg">
<g id="&#236;&#164;&#128;&#235;&#185;&#132;&#236;&#164;&#145;_&#236;&#149;&#132;&#236;&#157;&#180;&#236;&#189;&#152;">
<g id="Layer_2">
<g id="Group">
<path id="Vector" d="M38.7146 50.7771C30.0988 39.6103 37.1143 25.1264 37.1143 25.1264L43.4591 25.5921L53.1962 46.5796L70.0895 39.7295L64.6237 21.5423C64.6237 21.5423 66.6692 19.9349 67.5426 19.8497C68.4104 19.7588 76.147 20.2018 80.4352 29.2614C84.7233 38.3209 81.6185 48.4426 81.6185 48.4426C81.4494 53.5432 84.7458 57.8202 84.7458 57.8202L140.661 130.308C143.416 133.881 143.061 139.089 139.652 142.031C136.012 145.172 130.552 144.582 127.639 140.81L71.8025 68.4247C71.8025 68.4247 71.4926 68.0555 70.9348 67.4819C67.5313 64.0341 62.9727 62.0064 58.1605 61.7053C53.3483 61.4043 46.2146 60.5012 38.7146 50.7771Z" fill="#D7D8D9"/>
<g id="Clip path group">
<mask id="mask0_4125_132844" style="mask-type:luminance" maskUnits="userSpaceOnUse" x="34" y="19" width="109" height="126">
<g id="clippath">
<path id="Vector_2" d="M38.7151 50.7771C30.0993 39.6103 37.1148 25.1264 37.1148 25.1264L43.4596 25.5921L53.1967 46.5796L70.09 39.7295L64.6242 21.5423C64.6242 21.5423 66.6697 19.9349 67.5431 19.8497C68.4108 19.7588 76.1475 20.2018 80.4357 29.2614C84.7238 38.3209 81.619 48.4426 81.619 48.4426C81.4499 53.5432 84.7463 57.8202 84.7463 57.8202L140.661 130.308C143.417 133.881 143.062 139.089 139.653 142.031C136.012 145.172 130.552 144.582 127.639 140.81L71.803 68.4247C71.803 68.4247 71.4931 68.0555 70.9353 67.4819C67.5318 64.0341 62.9732 62.0064 58.161 61.7053C53.3488 61.4043 46.2151 60.5012 38.7151 50.7771Z" fill="white"/>
</g>
</mask>
<g mask="url(#mask0_4125_132844)">
<g id="Group_2">
<path id="Vector_3" d="M38.163 16.6055L37.6446 22.7001C37.6446 22.7001 32.3366 41.9892 47.7311 53.1163C57.6766 60.3014 64.5004 56.831 68.7604 62.3576C77.4607 72.0363 122.523 134.414 131.617 140.65C140.712 146.887 139.489 147.966 139.489 147.966L117.812 155.452L52.9997 103.986L16.249 56.3368L20.6611 23.2681L38.1687 16.6055H38.163Z" fill="#9A9C9E"/>
<path id="Vector_4" d="M44.3313 24.1836C44.3313 24.1836 42.021 27.2337 42.2069 28.9548C42.3929 30.6758 51.1777 48.8006 51.1777 48.8006L55.3475 45.5346L48.9744 29.0627L44.3313 24.1836Z" fill="#85888B"/>
<path id="Vector_5" d="M67.9357 22.7562L73.4859 41.7365C73.4859 41.7365 64.7118 38.4198 64.4934 38.1327C64.2749 37.8455 61.2754 18.8418 61.2754 18.8418L67.9357 22.7504V22.7562Z" fill="#B7B9BC"/>
<path id="Vector_6" d="M73.4861 41.4065L54.6824 49.3688L51.3545 48.7466L56.0524 41.4962C56.0524 41.4962 63.8054 40.4015 64.0782 40.3835C64.351 40.3656 68.6063 38.6846 68.6063 38.6846L73.4861 41.4065Z" fill="#B7B9BC"/>
<path id="Vector_7" d="M61.9593 15.6057C61.9593 15.6057 69.8368 19.6612 73.3586 25.5911C76.8804 31.5266 78.0243 41.4495 77.1565 44.4372C76.2887 47.4249 75.6464 53.4286 83.2703 62.1757C90.9 70.9229 136.926 132.187 137.613 133.539C138.301 134.891 137.816 137.225 136.683 139.179C135.551 141.133 136.21 143.808 136.21 143.808C136.21 143.808 144.144 142.911 145.35 141.968C146.556 141.025 151.289 120.458 151.289 120.458L130.772 83.1405L74.0573 15.5489C74.0573 15.5489 65.7966 2.78033 63.599 4.50136C61.4014 6.22239 61.9593 15.6057 61.9593 15.6057Z" fill="#F9F9F9"/>
</g>
</g>
</g>
<path id="Vector_8" d="M134.22 139.015C136.062 139.015 137.556 137.51 137.556 135.653C137.556 133.795 136.062 132.29 134.22 132.29C132.378 132.29 130.884 133.795 130.884 135.653C130.884 137.51 132.378 139.015 134.22 139.015Z" fill="white"/>
<path id="Vector_9" d="M80.4297 65.9196C81.6017 64.9995 83.4669 65.4482 84.5995 66.9136L124.63 118.806C125.762 120.271 125.728 122.202 124.556 123.123C123.384 124.043 121.519 123.594 120.387 122.129L80.3564 70.2364C79.2238 68.771 79.2576 66.8398 80.4297 65.9196Z" fill="#C2C3C4"/>
<g id="Clip path group_2">
<mask id="mask1_4125_132844" style="mask-type:luminance" maskUnits="userSpaceOnUse" x="79" y="65" width="47" height="59">
<g id="clippath-1">
<path id="Vector_10" d="M80.4297 65.9206C81.6017 65.0004 83.4669 65.4492 84.5995 66.9146L124.63 118.807C125.762 120.272 125.728 122.203 124.556 123.124C123.384 124.044 121.519 123.595 120.387 122.13L80.3564 70.2374C79.2238 68.7719 79.2576 66.8408 80.4297 65.9206Z" fill="white"/>
</g>
</mask>
<g mask="url(#mask1_4125_132844)">
<g id="Group_3">
<path id="Vector_11" d="M80.4466 61.5347C80.4466 61.5347 82.3117 70.9521 88.1551 77.609C93.9928 84.2659 116.205 114.29 119.045 117.738C121.885 121.186 128.433 123.742 128.433 123.742L121.097 127.008L77.2685 71.7075L73.9946 60.3135L80.4466 61.529V61.5347Z" fill="#A7A9AA"/>
</g>
</g>
</g>
<path id="Vector_12" d="M80.4297 65.9196C81.6017 64.9995 83.4669 65.4482 84.5995 66.9136L124.63 118.806C125.762 120.271 125.728 122.202 124.556 123.123C123.384 124.043 121.519 123.594 120.387 122.129L80.3564 70.2364C79.2238 68.771 79.2576 66.8398 80.4297 65.9196Z" stroke="#676767" stroke-width="2.28947" stroke-linecap="round" stroke-linejoin="round"/>
<path id="Vector_13" d="M134.22 139.015C136.062 139.015 137.556 137.51 137.556 135.653C137.556 133.795 136.062 132.29 134.22 132.29C132.378 132.29 130.884 133.795 130.884 135.653C130.884 137.51 132.378 139.015 134.22 139.015Z" stroke="#474747" stroke-width="3.05263" stroke-linecap="round" stroke-linejoin="round"/>
<path id="Vector_14" d="M38.7146 50.7771C30.0988 39.6103 37.1143 25.1264 37.1143 25.1264L43.4591 25.5921L53.1962 46.5796L70.0895 39.7295L64.6237 21.5423C64.6237 21.5423 66.6692 19.9349 67.5426 19.8497C68.4103 19.7588 76.147 20.2018 80.4352 29.2614C84.7233 38.3209 81.6185 48.4426 81.6185 48.4426C81.4494 53.5432 84.7458 57.8202 84.7458 57.8202L140.661 130.308C143.416 133.881 143.061 139.089 139.652 142.031C136.012 145.172 130.552 144.582 127.639 140.81L71.8025 68.4247C71.8025 68.4247 71.4926 68.0555 70.9348 67.4819C67.5313 64.0341 62.9727 62.0064 58.1605 61.7053C53.3483 61.4043 46.2146 60.5012 38.7146 50.7771Z" stroke="#474747" stroke-width="3.05263" stroke-linecap="round" stroke-linejoin="round"/>
</g>
</g>
<g id="Layer_3">
<g id="Group_4">
<g id="Group_5">
<path id="Vector_15" d="M111.766 29.1325L108.909 26.6901C108.447 26.2925 108.385 25.5938 108.779 25.1224L112.994 18.4541L118.229 13.8931C118.624 13.4274 119.317 13.3649 119.784 13.7625L122.641 16.2049L111.76 29.1325H111.766Z" fill="#D7D8D9"/>
<path id="Vector_16" d="M159.009 51.1414C159.104 43.2747 157.279 38.9579 153.458 35.6919L139.371 23.6447C137.495 22.043 134.925 21.8214 132.868 22.8893C131.268 23.7129 129.403 23.9571 127.746 23.2528C126.929 22.9063 126.18 22.4349 125.515 21.8669C123.92 20.5037 122.821 18.5555 122.557 16.3232L111.676 29.2452C116.144 29.0464 119.052 32.1987 120.545 36.8279C120.545 36.8279 124.174 44.7231 119.503 50.3065L91.9424 83.0515L100.344 90.2366L127.887 57.5143C130.834 54.0155 135.686 53.7315 138.898 54.0041C141.033 54.1916 143.13 53.3453 144.516 51.6981L149.474 45.8079C149.858 45.3535 150.556 45.3195 150.973 45.7511C156.512 51.3913 149.801 67.9257 151.864 69.6922C152.303 70.0671 153.672 70.3738 154.112 69.8512C155.278 68.4653 158.913 58.7923 159.014 51.1357L159.009 51.1414Z" fill="#D7D8D9"/>
<g id="Clip path group_3">
<mask id="mask2_4125_132844" style="mask-type:luminance" maskUnits="userSpaceOnUse" x="91" y="16" width="69" height="75">
<g id="clippath-2">
<path id="Vector_17" d="M159.009 51.1424C159.104 43.2757 157.279 38.9589 153.458 35.6929L139.371 23.6457C137.495 22.0439 134.925 21.8224 132.868 22.8903C131.268 23.7139 129.403 23.9581 127.746 23.2538C126.929 22.9073 126.18 22.4359 125.515 21.8679C123.92 20.5047 122.821 18.5564 122.557 16.3242L111.676 29.2461C116.144 29.0473 119.052 32.1997 120.545 36.8289C120.545 36.8289 124.174 44.724 119.503 50.3074L91.9424 83.0525L100.344 90.2376L127.887 57.5153C130.834 54.0165 135.686 53.7325 138.898 54.0051C141.033 54.1925 143.13 53.3462 144.516 51.699L149.474 45.8089C149.858 45.3545 150.556 45.3204 150.973 45.7521C156.512 51.3923 149.801 67.9267 151.864 69.6932C152.303 70.068 153.672 70.3748 154.112 69.8522C155.278 68.4663 158.913 58.7933 159.014 51.1367L159.009 51.1424Z" fill="white"/>
</g>
</mask>
<g mask="url(#mask2_4125_132844)">
<g id="Group_6">
<path id="Vector_18" d="M114.793 28.0018C114.793 28.0018 122 27.7234 125.167 34.1816C128.334 40.6397 127.562 48.1827 120.851 55.3281C114.14 62.4735 93.4428 87.8856 93.4428 87.8856L75.6816 80.6607L110.77 34.9938L114.793 28.0074V28.0018Z" fill="#F9F9F9"/>
<path id="Vector_19" d="M118.162 8.59336C118.162 8.59336 122.551 8.65584 122.354 12.0013C122.157 15.3468 120.895 23.7873 128.22 25.0141C134.103 26.0025 134.024 23.0943 136.83 23.969C140.769 25.2016 143.411 13.4838 143.141 13.0237L151.171 12.0411C151.171 12.0411 134.677 -2.05657 131.387 0.749331C128.096 3.55523 118.162 8.59336 118.162 8.59336Z" fill="#C2C3C4"/>
<path id="Vector_20" d="M149.477 44.3782C149.477 44.3782 160.569 41.2745 153.116 67.4996C145.663 93.7304 147.578 77.6294 147.578 77.6294C147.578 77.6294 141.281 67.8529 140.858 67.5266C140.436 67.2002 146.358 48.4762 146.358 48.4762L149.477 44.3839L149.477 44.3782Z" fill="#85888B"/>
<path id="Vector_21" d="M137.415 60.7597C137.153 59.9861 150.446 43.6998 149.045 43.8068C147.645 43.9138 143.728 49.9463 139.974 49.9603C136.219 49.9799 131.081 49.6637 126.405 54.0807C121.729 58.4976 95.6961 88.7601 95.6961 88.7601L106.902 97.9724L137.415 60.754L137.415 60.7597Z" fill="#9A9C9E"/>
</g>
</g>
</g>
<path id="Vector_22" d="M154.107 69.858C153.673 70.3749 152.298 70.0738 151.858 69.699C149.796 67.9325 156.513 51.3924 150.968 45.7579C150.551 45.3319 149.852 45.3603 149.469 45.8147L144.51 51.7048C143.124 53.352 141.028 54.1983 138.892 54.0109C137.281 53.8746 135.269 53.8803 133.286 54.346C131.302 54.8231 129.353 55.7717 127.882 57.5211L100.339 90.2434L91.937 83.0582L119.503 50.3076C124.174 44.7241 120.54 36.829 120.54 36.829C119.046 32.1998 116.229 28.9338 111.766 29.1383L108.909 26.6903C108.447 26.2927 108.385 25.594 108.78 25.1283C108.78 25.1283 110.093 22.1179 112.797 18.903C115.496 15.6938 118.235 13.899 118.235 13.899C118.629 13.4332 119.322 13.3707 119.79 13.7683L122.653 16.2164C122.918 18.4543 123.926 20.5105 125.521 21.8736C126.186 22.4416 126.935 22.9131 127.752 23.2596C129.409 23.9639 131.274 23.7196 132.874 22.896C134.931 21.8339 137.501 22.0497 139.377 23.6515L153.464 35.6987C157.285 38.9647 159.11 43.2758 159.015 51.1482C158.919 58.8048 155.284 68.4721 154.112 69.8637L154.107 69.858Z" stroke="#474747" stroke-width="3.05263" stroke-linecap="round" stroke-linejoin="round"/>
<path id="Vector_23" d="M121.416 19.6189C121.492 19.417 120.055 21.5273 118.418 23.3973C117.162 24.8298 115.315 26.4739 115.315 26.4739C115.315 26.4739 116.519 26.4835 118.832 23.7242C119.879 22.4695 120.702 20.9265 121.421 19.6189H121.416Z" fill="#9A9C9E"/>
</g>
<path id="Vector_24" d="M62.1229 142.664C61.52 143.38 60.6579 143.829 59.7225 143.897C57.9249 144.039 55.609 142.653 51.7604 139.364C47.816 135.99 46.1368 133.838 46.0184 132.049C45.9565 131.157 46.272 130.282 46.8411 129.606L82.5775 87.1484L97.848 100.212L62.1116 142.67L62.1229 142.664Z" fill="#AA7C5C"/>
<path id="Vector_25" d="M100.333 90.2265C100.255 89.6869 95.048 85.0578 96.4567 86.2619C97.8654 87.4661 92.4841 83.0471 91.9431 83.0527C90.8162 83.0698 82.7019 86.5573 82.5892 87.148C82.5329 87.4433 88.8552 93.0949 89.9315 94.0151C91.0077 94.9352 97.5667 100.303 97.8485 100.201C98.412 99.9904 100.503 91.3512 100.333 90.2322V90.2265Z" fill="#5E4C3F"/>
<g id="Clip path group_4">
<mask id="mask3_4125_132844" style="mask-type:luminance" maskUnits="userSpaceOnUse" x="82" y="83" width="19" height="18">
<g id="clippath-3">
<path id="Vector_26" d="M100.333 90.2256C100.255 89.686 95.048 85.0568 96.4567 86.2609C97.8654 87.4651 92.4841 83.0461 91.9431 83.0518C90.8162 83.0688 82.7019 86.5563 82.5892 87.147C82.5329 87.4424 88.8552 93.0939 89.9315 94.0141C91.0077 94.9343 97.5667 100.302 97.8485 100.2C98.412 99.9894 100.503 91.3502 100.333 90.2312V90.2256Z" fill="white"/>
</g>
</mask>
<g mask="url(#mask3_4125_132844)">
<g id="Group_7">
<path id="Vector_27" d="M96.4281 84.8934C96.4281 84.8934 94.4108 85.0808 91.6046 87.0688C88.7984 89.0568 87.8236 90.7267 87.8236 90.7267L73.0771 83.5018L81.197 65.8428L94.5967 71.3239L96.4281 84.8877V84.8934Z" fill="#796C62"/>
<path id="Vector_28" d="M102.677 88.8348L98.744 88.3975C98.744 88.3975 98.6482 93.7593 95.6674 97.1616C92.6922 100.558 98.2256 103.654 98.2256 103.654L102.7 97.0935L102.677 88.8348Z" fill="#493A30"/>
</g>
</g>
</g>
<g id="Clip path group_5">
<mask id="mask4_4125_132844" style="mask-type:luminance" maskUnits="userSpaceOnUse" x="46" y="87" width="52" height="57">
<g id="clippath-4">
<path id="Vector_29" d="M62.1229 142.662C61.52 143.378 60.6579 143.827 59.7225 143.895C57.9249 144.037 55.609 142.651 51.7604 139.362C47.816 135.989 46.1368 133.836 46.0184 132.047C45.9565 131.155 46.272 130.28 46.8411 129.604L82.5775 87.1465L97.848 100.21L62.1116 142.668L62.1229 142.662Z" fill="white"/>
</g>
</mask>
<g mask="url(#mask4_4125_132844)">
<g id="Group_8">
<path id="Vector_30" d="M87.6711 91.0925C79.6921 97.1758 50.2611 133.8 49.9738 136.487C49.6864 139.173 38.2363 121.293 38.2363 121.293C38.2363 121.293 63.1199 91.7287 63.6947 91.0471C64.2694 90.3655 79.9175 83.5098 79.9175 83.5098C79.9175 83.5098 95.6501 85.0036 87.6711 91.0868V91.0925Z" fill="#E2AB85"/>
<path id="Vector_31" d="M98.7132 100.341L94.9886 98.8242C94.9886 98.8242 60.537 141.964 57.2913 144.576C54.0456 147.189 64.3461 151.665 64.3461 151.665L96.2508 121.078L98.7132 100.341Z" fill="#6A472F"/>
</g>
</g>
</g>
<path id="Vector_32" d="M62.1229 142.664C61.52 143.38 60.6578 143.829 59.7225 143.897C57.9249 144.039 55.609 142.653 51.7604 139.364C47.816 135.99 46.1368 133.838 46.0184 132.049C45.9565 131.157 46.272 130.282 46.8411 129.606L82.5775 87.1484L97.848 100.212L62.1116 142.67L62.1229 142.664Z" stroke="#3A312C" stroke-width="3.05263" stroke-miterlimit="10" stroke-linejoin="round"/>
<path id="Vector_33" d="M100.333 90.2265C100.255 89.6869 98.4289 87.9432 96.4567 86.2619C94.4845 84.575 92.4841 83.0471 91.9431 83.0528C90.8162 83.0698 82.7019 86.5573 82.5892 87.148C82.5329 87.4434 88.8552 93.0949 89.9315 94.0151C91.0077 94.9352 97.5667 100.303 97.8485 100.201C98.412 99.9904 100.503 91.3512 100.333 90.2322V90.2265Z" stroke="#3A312C" stroke-width="3.05263" stroke-miterlimit="10"/>
</g>
</g>
</g>
</svg>
