<svg width="24" height="24" viewBox="0 0 24 24" fill="none" xmlns="http://www.w3.org/2000/svg">
<g clip-path="url(#clip0_612_14496)">
<path fill-rule="evenodd" clip-rule="evenodd" d="M2 7.05103C2 6.89447 2.14227 6.77643 2.29614 6.80532L5.19047 7.34881C5.30869 7.371 5.39434 7.47423 5.39434 7.59451V14.2189C5.39434 14.3298 5.32122 14.4275 5.21477 14.4587L2.32044 15.3087C2.16034 15.3557 2 15.2357 2 15.0688V7.05103ZM7.14221 14.3124V13.9999V7.56285C7.14221 7.45428 7.21229 7.35811 7.31565 7.32486L20.7053 3.01766C20.8667 2.96574 21.0319 3.08612 21.0319 3.25565V16.8496C21.0319 17.0066 20.8889 17.1247 20.7347 17.0951L11.7788 15.3743C11.7592 15.3705 11.7402 15.3641 11.7216 15.3568C11.689 15.3439 11.6551 15.3341 11.6202 15.3275L7.30796 14.5125C7.21182 14.4943 7.14221 14.4103 7.14221 14.3124ZM7.848 21.748C7.70993 21.748 7.598 21.636 7.598 21.498V16.0135C7.598 15.8565 7.741 15.7384 7.89517 15.768L10.5574 16.2795C10.6993 16.3068 10.7886 16.4484 10.7521 16.5882L9.45343 21.5611C9.42469 21.6712 9.32529 21.748 9.21154 21.748H7.848Z" fill="#BDBDBD"/>
</g>
<defs>
<clipPath id="clip0_612_14496">
<rect width="24" height="24" fill="white"/>
</clipPath>
</defs>
</svg>
