<svg width="318" height="100" viewBox="0 0 318 100" fill="none" xmlns="http://www.w3.org/2000/svg">
<path d="M317 1V39.17C315.34 39.17 313.76 39.55 312.35 40.22C311.89 40.45 311.44 40.71 311.01 40.99C311.01 40.99 311.01 41 311 41C310.58 41.29 310.17 41.61 309.79 41.95C309.67 42.07 309.54 42.19 309.42 42.31C309.27 42.46 309.12 42.62 308.98 42.78C308.84 42.94 308.7 43.1 308.57 43.27C308.44 43.44 308.31 43.61 308.19 43.79C308.06 43.96 307.95 44.14 307.84 44.33C307.72 44.51 307.62 44.7 307.52 44.89C307.46 45 307.4 45.11 307.35 45.23C307.27 45.39 307.2 45.55 307.13 45.71C307.06 45.87 307 46.03 306.94 46.19C306.88 46.36 306.82 46.52 306.77 46.69C306.71 46.86 306.66 47.04 306.63 47.22C306.58 47.39 306.54 47.55 306.51 47.72C306.4 48.24 306.33 48.78 306.3 49.33C306.29 49.52 306.29 49.7 306.29 49.88V50.12C306.29 50.24 306.29 50.37 306.3 50.49C306.29 50.59 306.29 50.68 306.31 50.77C306.36 51.65 306.52 52.5 306.77 53.31C306.82 53.48 306.88 53.64 306.94 53.81C307.05 54.14 307.19 54.46 307.35 54.77C307.42 54.92 307.5 55.08 307.58 55.23C307.66 55.38 307.74 55.54 307.84 55.68C307.93 55.83 308.02 55.97 308.12 56.11C308.21 56.25 308.31 56.39 308.41 56.53C308.62 56.81 308.84 57.07 309.07 57.33C309.18 57.45 309.3 57.58 309.42 57.7C309.54 57.82 309.67 57.94 309.79 58.05C310.55 58.75 311.41 59.33 312.35 59.78C312.51 59.86 312.67 59.93 312.83 60C313.3 60.2 313.8 60.37 314.32 60.5C314.49 60.55 314.67 60.59 314.84 60.62C314.96 60.65 315.08 60.67 315.21 60.69C315.34 60.71 315.47 60.73 315.61 60.75C315.85 60.78 316.1 60.81 316.34 60.82C316.56 60.83 316.78 60.84 317 60.84V99H1V60.84C3.96 60.84 6.63 59.64 8.57 57.7C8.81 57.46 9.04 57.2 9.26 56.94C9.7 56.41 10.09 55.84 10.42 55.23C11.24 53.71 11.71 51.97 11.71 50.12V49.89C11.71 43.97 6.91 39.17 1 39.17V1H317Z" fill="#1C6EE9"/>
<path fill-rule="evenodd" clip-rule="evenodd" d="M189.865 49.8309V50.159C189.865 58.3525 183.227 64.9898 175.042 64.9898C166.857 64.9898 160.22 58.3441 160.22 50.159V49.8309C160.22 41.6373 166.857 35 175.042 35C183.227 35 189.865 41.6457 189.865 49.8309Z" fill="white"/>
<path fill-rule="evenodd" clip-rule="evenodd" d="M111.782 49.983L119.48 57.5793C120.01 58.1009 120.312 58.8243 120.312 59.573C120.312 60.3217 120.018 61.0368 119.488 61.5667L117.637 63.4174C116.544 64.511 114.777 64.511 113.675 63.4259L105.936 55.7623L98.1881 63.4259C97.0861 64.511 95.3195 64.511 94.2259 63.4174L92.3752 61.5667C91.8452 61.0368 91.5508 60.3217 91.5508 59.573C91.5508 58.8243 91.8536 58.1093 92.3836 57.5793L100.081 49.983L92.3836 42.3867C91.8452 41.8567 91.5508 41.1417 91.5508 40.3846C91.5508 39.6359 91.8536 38.9124 92.392 38.3824L94.2427 36.5654C95.3363 35.4886 97.0945 35.4886 98.1797 36.5654L105.927 44.2122L113.675 36.5654C114.769 35.4886 116.518 35.4886 117.612 36.5654L119.463 38.3824C120.001 38.9124 120.304 39.6275 120.304 40.3846C120.304 41.1333 120.001 41.8567 119.471 42.3867L111.774 49.983H111.782Z" fill="white"/>
<path fill-rule="evenodd" clip-rule="evenodd" d="M124.89 61.903L139.645 36.6408C139.906 36.195 140.377 35.9258 140.898 35.9258C141.411 35.9258 141.891 36.195 142.152 36.6408L156.941 61.903C157.201 62.3488 157.201 62.904 156.941 63.3583C156.68 63.8125 156.2 64.0902 155.687 64.0902H126.143C125.622 64.0902 125.142 63.8125 124.89 63.3667C124.629 62.9208 124.637 62.3656 124.89 61.9114V61.903Z" fill="white"/>
<path d="M225.197 36.2539H196.528C195.836 36.2539 195.274 36.8151 195.274 37.5073V62.4834C195.274 63.1757 195.836 63.7369 196.528 63.7369H225.197C225.889 63.7369 226.45 63.1757 226.45 62.4834V37.5073C226.45 36.8151 225.889 36.2539 225.197 36.2539Z" fill="white"/>
<path d="M47 77H271" stroke="#D5E5F4" stroke-width="3.2" stroke-linecap="round" stroke-linejoin="round"/>
<path d="M47 23H271" stroke="#D5E5F4" stroke-width="3.2" stroke-linecap="round" stroke-linejoin="round"/>
</svg>
