<svg width="32" height="31" viewBox="0 0 32 31" fill="none" xmlns="http://www.w3.org/2000/svg">
<path fill-rule="evenodd" clip-rule="evenodd" d="M3.99168 0.939941C1.78714 0.939941 0 2.72707 0 4.93162V26.5532C0 28.7578 1.78713 30.5449 3.99168 30.5449H27.8161C30.0206 30.5449 31.8078 28.7578 31.8078 26.5532V4.93162C31.8078 2.72708 30.0206 0.939941 27.8161 0.939941H3.99168ZM22.9787 4.84533C22.8817 4.67893 22.7039 4.57659 22.5115 4.57651C22.3192 4.57643 22.1412 4.67861 22.0441 4.84491L16.5093 14.3234C16.4114 14.491 16.4106 14.6983 16.507 14.8668C16.6035 15.0353 16.7826 15.1392 16.9765 15.1392H28.0349C28.2288 15.1392 28.4078 15.0354 28.5043 14.867C28.6008 14.6986 28.6001 14.4914 28.5023 14.3238L22.9787 4.84533ZM6.68088 4.89774C6.2707 4.49066 5.60919 4.49219 5.20089 4.90117L4.50904 5.59417C4.31154 5.792 4.20096 6.06057 4.20182 6.34035C4.20268 6.62013 4.31491 6.88801 4.51364 7.08462L7.39589 9.93623L4.51364 12.7878C4.31386 12.9855 4.20154 13.2551 4.20182 13.5364C4.20209 13.8177 4.31494 14.0871 4.5151 14.2843L5.20695 14.9661C5.61573 15.369 6.27173 15.3684 6.67972 14.9647L9.5804 12.0949L12.4811 14.9647C12.8891 15.3684 13.5451 15.369 13.9539 14.9661L14.6457 14.2843C14.8459 14.0871 14.9587 13.8177 14.959 13.5364C14.9593 13.2551 14.8469 12.9855 14.6472 12.7878L11.7649 9.93623L14.6472 7.08462C14.8459 6.88801 14.9581 6.62013 14.959 6.34035C14.9598 6.06057 14.8493 5.792 14.6518 5.59417L13.9599 4.90117C13.5516 4.49219 12.8901 4.49066 12.4799 4.89774L9.5804 7.77535L6.68088 4.89774ZM17.1993 16.668C16.9435 16.668 16.7362 16.8756 16.7362 17.1318V26.3979C16.7362 26.6541 16.9435 26.8618 17.1993 26.8618H27.8114C28.0672 26.8618 28.2745 26.6541 28.2745 26.3979V17.1318C28.2745 16.8756 28.0672 16.668 27.8114 16.668H17.1993ZM9.24334 16.042C6.17731 16.042 3.69179 18.5316 3.69179 21.6028C3.69179 24.6739 6.17731 27.1635 9.24334 27.1635H9.36609C12.4321 27.1635 14.9176 24.6739 14.9176 21.6028C14.9176 18.5316 12.4321 16.042 9.36609 16.042H9.24334Z" fill="#1C6EE9"/>
</svg>
