<svg width="12" height="12" viewBox="0 0 12 12" fill="none" xmlns="http://www.w3.org/2000/svg">
<path fill-rule="evenodd" clip-rule="evenodd" d="M5.48582 6.00707C5.48973 6.00317 5.48973 5.99683 5.48582 5.99293L2.14965 2.65675C2.14574 2.65285 2.14574 2.64652 2.14965 2.64261L2.78519 2.00707C2.7891 2.00317 2.79543 2.00317 2.79933 2.00707L6.13551 5.34325C6.13941 5.34715 6.14574 5.34715 6.14965 5.34325L9.48582 2.00707C9.48973 2.00317 9.49606 2.00317 9.49997 2.00707L10.1355 2.64261C10.1394 2.64652 10.1394 2.65285 10.1355 2.65675L6.79933 5.99293C6.79543 5.99683 6.79543 6.00317 6.79933 6.00707L10.1355 9.34325C10.1394 9.34715 10.1394 9.35348 10.1355 9.35739L9.49997 9.99293C9.49606 9.99683 9.48973 9.99683 9.48582 9.99293L6.14965 6.65675C6.14574 6.65285 6.13941 6.65285 6.13551 6.65675L2.79933 9.99293C2.79543 9.99683 2.78909 9.99683 2.78519 9.99293L2.14965 9.35739C2.14574 9.35348 2.14574 9.34715 2.14965 9.34325L5.48582 6.00707Z" fill="#ED4F1D" stroke="#ED4F1D" stroke-width="3"/>
</svg>
